<?xml version="1.0" encoding="UTF-8"?>
<svg id="Layer_2" data-name="Layer 2" xmlns="http://www.w3.org/2000/svg" viewBox="0 0 748.8 675.13">
  <defs>
    <style>
      .cls-1 {
        fill: #042d68;
      }

      .cls-2 {
        fill: #fff;
      }

      .cls-3 {
        fill: #fc6363;
      }

      .cls-4 {
        fill: #6a8fc2;
      }

      .cls-5 {
        fill: #c1e2fd;
      }

      .cls-6 {
        fill: #b20f0f;
      }

      .cls-7 {
        fill: #e22b2b;
      }

      .cls-8 {
        fill: #1750a3;
      }

      .cls-9 {
        fill: #6e6372;
      }

      .cls-10 {
        fill: #88c3ea;
      }

      .cls-11 {
        fill: #58b8f9;
      }

      .cls-12 {
        fill: #594d5e;
      }

      .cls-13 {
        fill: #4ff797;
      }
    </style>
  </defs>
  <g id="Layer_1-2" data-name="Layer 1">
    <g>
      <ellipse class="cls-5" cx="370.9" cy="667.51" rx="28.07" ry="7.62"/>
      <g>
        <path class="cls-5" d="M295.58,476.89h9.06s0-18.07,0-18.07h-9.06c-2.79,0-5.05,2.26-5.05,5.05v7.96c0,2.79,2.26,5.05,5.05,5.05Z"/>
        <path class="cls-10" d="M292.49,465.95c2.44,2.77,6.44,3.81,10.09,3.31,.25-.03,.55-.05,.68,.16,.07,.11,.07,.24,.06,.36-.04,1.47-.08,2.95-.12,4.42,0,.24-.02,.49-.14,.69-.14,.22-.4,.33-.65,.42-2.42,.88-5.11,.72-7.62,.15-.79-.18-1.58-.41-2.25-.86-1.07-.72-1.72-1.96-1.98-3.22-.27-1.27-.2-2.58-.12-3.87"/>
        <path d="M304.65,456.91c-2.59,0-5.19,0-7.78,0-1.52,0-2.96,.05-4.38,.73-2.38,1.15-3.82,3.63-3.87,6.24s0,5.1,0,7.64c.02,4.27,3.22,7.28,7.44,7.28,2.86,0,5.73,0,8.59,0,2.46,0,2.46-3.82,0-3.82s-4.72,0-7.08,0c-.86,0-1.92,.11-2.71-.08-1.48-.37-2.4-1.64-2.43-3.13-.04-2.46,0-4.92,0-7.37,0-1.23,.26-2.31,1.26-3.05,.9-.67,1.83-.62,2.92-.62,2.68,0,5.35,0,8.03,0,2.46,0,2.46-3.82,0-3.82h0Z"/>
      </g>
      <g>
        <path class="cls-5" d="M444.39,476.89h-9.06v-18.07h9.06c2.79,0,5.05,2.26,5.05,5.05v7.96c0,2.79-2.26,5.05-5.05,5.05Z"/>
        <path class="cls-10" d="M447.49,465.95c-2.44,2.77-6.44,3.81-10.09,3.31-.25-.03-.55-.05-.68,.16-.07,.11-.07,.24-.06,.36,.04,1.47,.08,2.95,.12,4.42,0,.24,.02,.49,.14,.69,.14,.22,.4,.33,.65,.42,2.42,.88,5.11,.72,7.62,.15,.79-.18,1.58-.41,2.25-.86,1.07-.72,1.72-1.96,1.98-3.22,.27-1.27,.2-2.58,.12-3.87"/>
        <path d="M435.33,460.73h7.08c.86,0,1.92-.11,2.71,.08,1.48,.37,2.4,1.64,2.43,3.13,.04,2.46,0,4.92,0,7.37,0,1.23-.26,2.31-1.26,3.05-.9,.67-1.83,.62-2.92,.62h-8.03c-2.46,0-2.46,3.82,0,3.82h7.78c1.52,0,2.96-.05,4.38-.73,2.38-1.15,3.82-3.63,3.87-6.24s0-5.1,0-7.64c-.02-4.27-3.22-7.28-7.44-7.28h-8.59c-2.46,0-2.46,3.82,0,3.82h0Z"/>
      </g>
      <path class="cls-5" d="M370.9,648.71c-29.89,0-54.12-35.66-54.12-72.25s24.23-48.25,54.12-48.25,54.12,11.66,54.12,48.25-24.23,72.25-54.12,72.25Z"/>
      <path class="cls-10" d="M425.02,575.33c0,36.59-24.23,72.25-54.12,72.25s-54.12-35.66-54.12-72.25c0-1.62,.09,8.18,.18,6.66,.29,5.11,1.01-1.2,2.18,3.72,6.77,28.6,27.39,52.32,51.77,52.32,28.57,0,51.97-32.58,53.98-67.41,.09,1.52,.14,3.09,.14,4.71Z"/>
      <ellipse class="cls-5" cx="370.5" cy="465.54" rx="66.25" ry="54.12"/>
      <path class="cls-10" d="M436.35,467.23c0,29.89-29.66,54.13-66.25,54.13s-66.25-24.24-66.25-54.13c0-1.85,.11-3.68,.34-5.48,3.39,27.29,31.61,48.59,65.91,48.59s62.52-21.3,65.91-48.59c.23,1.8,.34,3.63,.34,5.48Z"/>
      <ellipse class="cls-8" cx="370.5" cy="465.54" rx="52.66" ry="38.5"/>
      <path class="cls-1" d="M423.55,465.91c0,21.26-23.57,38.5-52.65,38.5s-52.66-17.24-52.66-38.5c0-2.28,.27-4.52,.79-6.7,4.35,18.07,25.92,31.8,51.87,31.8s47.52-13.73,51.86-31.8c.52,2.18,.79,4.42,.79,6.7Z"/>
      <path class="cls-5" d="M269.62,542.62h0c.93-3.64,4.47-5.97,8.18-5.39l27.32,4.28c4.24,.66,6.99,4.84,5.93,9l-1.29,5.07c-1.06,4.16-5.48,6.5-9.52,5.05l-26.02-9.35c-3.53-1.27-5.52-5.02-4.59-8.66Z"/>
      <path class="cls-10" d="M278.19,537.06l27.32,4.27c4.24,.67,6.99,4.84,5.92,9l-1.09,4.29c-.63-2.81-2.91-5.12-5.98-5.61l-27.32-4.27c-2.56-.4-5.05,.59-6.65,2.44-.64-1.45-.81-3.1-.39-4.73,.93-3.64,4.48-5.98,8.19-5.4Z"/>
      <path d="M292.67,541.48c2.44,.38,4.88,.76,7.31,1.15s5.84,.38,7.69,2.16c2.76,2.65,1.29,6.16,.49,9.3-.39,1.54-.87,2.96-2.2,3.97-1.54,1.16-3.44,1.32-5.23,.72-4.6-1.55-9.14-3.28-13.71-4.92l-8.84-3.18c-1.48-.53-3.28-.93-4.59-1.85-4.37-3.05-1.88-9.97,3.34-9.77,.1,0,.82,.07,.37,.01,.06,0,.13,.02,.19,.03,.24,.03,.47,.07,.71,.11l2.61,.41c1.34,.21,2.68,.42,4.02,.63,1.03,.16,2.04-.26,2.35-1.33,.26-.9-.32-2.19-1.33-2.35-2.68-.42-5.36-.91-8.05-1.25-5.76-.72-10.93,4.29-10.25,10.1,.48,4.1,3.31,6.68,7.01,8.01l7.99,2.87c5.67,2.04,11.32,4.11,17,6.11,4.48,1.57,9.6-.49,11.53-4.89,.65-1.47,.95-3.12,1.34-4.67,.48-1.86,.93-3.64,.64-5.58-.46-3.02-2.51-5.69-5.3-6.93-1.39-.62-2.85-.77-4.33-1.01-3.25-.51-6.5-1.02-9.75-1.53-1.03-.16-2.04,.26-2.35,1.33-.26,.9,.32,2.19,1.33,2.35h0Z"/>
      <g>
        <rect class="cls-4" x="331.86" y="438.76" width="2" height="54.35"/>
        <rect class="cls-4" x="342.99" y="433.06" width="2" height="64.19"/>
        <rect class="cls-4" x="356.92" y="428.88" width="2" height="74.06"/>
      </g>
      <g>
        <rect class="cls-4" x="407.48" y="438.76" width="2" height="54.35"/>
        <rect class="cls-4" x="396.35" y="433.06" width="2" height="64.19"/>
        <rect class="cls-4" x="382.42" y="428.88" width="2" height="74.06"/>
      </g>
      <rect class="cls-4" x="369.9" y="428.88" width="2" height="74.06"/>
      <path d="M379.21,429.95c16.68,2.08,36.25,11.44,40.85,29.09,1.92,7.37,.46,15.01-3.55,21.44-4.45,7.15-11.51,12.35-19.07,15.84-17.45,8.06-39.65,7.64-56.66-1.38-7.21-3.82-13.7-9.32-17.53-16.63-3.49-6.66-4.09-14.32-1.67-21.41,2.56-7.49,8.31-13.62,14.84-17.91,7.79-5.12,16.95-8.12,26.18-9.14,2.62-.29,5.25-.42,7.89-.43,2.9,0,2.9-4.51,0-4.5-10.72,.03-21.48,2.27-31.08,7.13-8,4.05-15.33,10.14-19.71,18.07-4.11,7.43-5.27,16.25-2.82,24.42,2.57,8.56,8.58,15.56,15.77,20.67,17.05,12.12,41.03,14.2,60.57,7.56,16.67-5.66,33.33-19.71,32.12-38.92-1.25-19.83-20.07-32.7-37.84-36.96-2.74-.66-5.51-1.12-8.3-1.46-1.21-.15-2.25,1.14-2.25,2.25,0,1.34,1.04,2.1,2.25,2.25h0Z"/>
      <g>
        <rect class="cls-13" x="337.9" y="452.84" width="21.1" height="7.34" rx="1.07" ry="1.07" transform="translate(-105.36 104.55) rotate(-14.85)"/>
        <path d="M339.95,464.02c-.45,0-.89-.12-1.29-.35-.59-.34-1.02-.9-1.19-1.56l-1.33-5.02c-.36-1.37,.46-2.79,1.83-3.15l18.32-4.86c1.37-.36,2.78,.46,3.15,1.83l1.33,5.02c.18,.67,.08,1.36-.26,1.95-.35,.6-.9,1.02-1.57,1.2l-18.32,4.86c-.22,.06-.44,.09-.66,.09Zm-.81-7.29l1.11,4.2,17.5-4.64-1.11-4.2-17.5,4.64Zm19.02-.55h0Z"/>
      </g>
      <g>
        <rect class="cls-13" x="382.79" y="452.84" width="21.1" height="7.34" rx="1.07" ry="1.07" transform="translate(517.1 1046.26) rotate(-151.1)"/>
        <path d="M400.38,465.93c-.43,0-.85-.11-1.24-.32l-16.59-9.16c-.6-.33-1.04-.88-1.23-1.54s-.11-1.36,.22-1.96l2.51-4.55c.69-1.24,2.25-1.7,3.5-1.01l16.59,9.16c.6,.33,1.04,.88,1.23,1.54,.19,.66,.11,1.36-.22,1.96l-2.51,4.55c-.33,.6-.88,1.04-1.54,1.23-.24,.07-.48,.1-.72,.1Zm-16.01-11.9l15.85,8.75,2.1-3.8-15.85-8.75-2.1,3.8Z"/>
      </g>
      <path class="cls-2" d="M370.9,615.36c-18.61,0-33.7-22.21-33.7-44.99s15.09-30.04,33.7-30.04,33.7,7.26,33.7,30.04-15.09,44.99-33.7,44.99Z"/>
      <path class="cls-5" d="M404.6,570.08c0,22.78-15.09,44.99-33.71,44.99s-33.41-21.79-33.69-44.34c3.27,19.33,16.78,36.08,32.94,36.08,18.6,0,33.69-22.19,33.7-44.96,.5,2.49,.76,5.22,.76,8.23Z"/>
      <path d="M391.42,547.45c3.76,2.28,6.68,5.5,8.57,9.48,2.28,4.81,2.83,10.31,2.68,15.57-.32,10.75-4.02,21.85-10.89,30.22-5.85,7.13-14.56,12.58-24.11,11.09-9.75-1.52-17.28-9.16-21.94-17.43-3.04-5.41-5.04-11.37-6.02-17.49-1.03-6.47-.95-13.35,1.15-19.6,.78-2.34-2.9-3.34-3.68-1.02-3.97,11.83-1.65,25.73,3.58,36.8,4.56,9.65,12.46,18.74,23.03,21.79s20.82-1.18,28.18-8.63c8.3-8.4,13.01-20.05,14.25-31.68,.7-6.62,.34-13.68-2.21-19.9-2.15-5.24-5.81-9.54-10.65-12.48-2.11-1.28-4.03,2.02-1.93,3.3h0Z"/>
      <path d="M343.84,553.43c4.08-5.72,10.66-8.6,17.4-9.83,8.05-1.47,16.97-1.18,24.77,1.38,2.34,.77,3.34-2.92,1.02-3.68-6.86-2.25-14.37-2.68-21.53-2.07-6.14,.52-12.4,1.96-17.66,5.31-2.89,1.84-5.31,4.19-7.3,6.97-1.43,2.01,1.88,3.92,3.3,1.93h0Z"/>
      <path class="cls-2" d="M332.16,547.79c.22-.32,.44-.63,.67-.93s.02-.12-.05,.06c.05-.14,.26-.33,.36-.45,.46-.56,.95-1.1,1.46-1.62,.54-.55,1.09-1.07,1.67-1.57,.26-.22,.53-.44,.8-.66,.28-.23-.43,.31,.03-.02,.16-.11,.31-.23,.46-.34,1.18-.84,2.43-1.59,3.74-2.23,.31-.15,.62-.29,.94-.44,.68-.31-.38,.14,.02-.01,.18-.07,.35-.14,.53-.21,.72-.27,1.44-.51,2.18-.72,1.51-.43,2.6-2.14,2.1-3.69s-2.07-2.56-3.69-2.1c-6.69,1.93-12.46,6.17-16.4,11.9-.89,1.3-.28,3.39,1.08,4.1,1.53,.81,3.15,.31,4.1-1.08h0Z"/>
      <path class="cls-2" d="M352.65,536.52c3.86,0,3.87-6,0-6s-3.87,6,0,6h0Z"/>
      <path d="M405.16,538.16c5.45,3.44,9.85,8.18,12.82,13.91,3.58,6.9,4.93,14.77,5.11,22.48,.41,17.2-4.58,34.71-14.27,48.96-4.85,7.13-11.04,13.45-18.51,17.83-2.12,1.24-.2,4.55,1.93,3.3,14.76-8.66,24.73-24.06,30.07-40.01,2.92-8.72,4.51-17.94,4.62-27.15,.11-8.6-1.09-17.31-4.62-25.21-3.22-7.21-8.55-13.2-15.22-17.41-2.08-1.32-4,1.99-1.93,3.3h0Z"/>
      <path d="M318.77,572.7c.63-12.33,4.74-24.58,14.76-32.39,9.28-7.24,21.51-9.64,33.01-10.1,9.8-.39,19.79,.37,29.14,3.49,2.34,.78,3.34-2.91,1.02-3.68-8.94-2.99-18.52-3.87-27.91-3.7-6.64,.13-13.34,.83-19.78,2.52-11.74,3.08-22.34,9.86-28.2,20.73-3.83,7.1-5.46,15.12-5.86,23.13-.12,2.46,3.7,2.45,3.82,0h0Z"/>
      <path d="M384.11,644.32c-6.86,2.55-14.24,3.22-21.38,1.54-5.88-1.38-11.32-4.16-16.13-7.78-10.6-7.96-18.12-19.88-22.62-32.2-2.81-7.68-4.55-15.73-5.1-23.88-.17-2.44-3.99-2.46-3.82,0,1.02,15.02,5.72,29.95,14.04,42.55,7.3,11.05,17.71,20.74,30.67,24.49,8.34,2.41,17.24,1.99,25.37-1.03,2.28-.85,1.3-4.54-1.02-3.68h0Z"/>
      <path class="cls-2" d="M322.59,437.26c1.81-2.07,3.79-3.99,5.92-5.72,.12-.09,.23-.19,.35-.28,.07-.05,.57-.45,.22-.18-.32,.25,.08-.06,.14-.1,.15-.11,.3-.22,.45-.33,.54-.4,1.09-.78,1.64-1.15,1.17-.79,2.38-1.52,3.61-2.2,1.38-.76,1.94-2.77,1.08-4.1s-2.63-1.89-4.1-1.08c-5.09,2.81-9.72,6.52-13.55,10.9-1.03,1.18-1.25,3.1,0,4.24,1.13,1.04,3.14,1.26,4.24,0h0Z"/>
      <path class="cls-2" d="M341.54,423.83c3.86,0,3.87-6,0-6s-3.87,6,0,6h0Z"/>
      <path d="M411.67,505.66c-18.07,12.11-41.56,15.09-62.37,9.2-16.8-4.76-32.73-15.9-39.7-32.37-4.39-10.38-4.49-21.99-.54-32.53,.86-2.3-2.83-3.3-3.68-1.02-3.77,10.04-4.05,21.22-.64,31.4,2.85,8.53,8.05,16.15,14.62,22.26,15.12,14.06,36.54,20.21,56.91,18.77,13.23-.93,26.28-5.01,37.33-12.42,2.03-1.36,.12-4.67-1.93-3.3h0Z"/>
      <path d="M358.42,414.23c19.52-3.01,40.71,1.3,56.48,13.52,13.46,10.43,22.18,26.97,19.46,44.26-1.83,11.65-8.33,21.79-17.15,29.44-1.86,1.61,.85,4.3,2.7,2.7,8.29-7.18,14.74-16.64,17.38-27.36,2.28-9.26,1.68-19.16-1.76-28.06-6.79-17.57-22.84-29.84-40.42-35.46-12.14-3.87-25.13-4.65-37.7-2.72-1.02,.16-1.59,1.44-1.33,2.35,.3,1.09,1.32,1.49,2.35,1.33h0Z"/>
      <path d="M312.98,442.14c8.23-13.2,22.06-21.94,36.85-26.05,2.36-.66,1.36-4.34-1.02-3.68-15.75,4.38-30.39,13.77-39.14,27.81-1.3,2.09,2,4.01,3.3,1.93h0Z"/>
      <g>
        <g>
          <path class="cls-5" d="M476.38,538.52h0c1.24,3.55-.43,7.45-3.84,9.02l-25.13,11.53c-3.9,1.79-8.5-.17-9.91-4.22l-1.72-4.94c-1.41-4.05,.97-8.45,5.14-9.47l26.85-6.59c3.65-.9,7.38,1.13,8.61,4.67Z"/>
          <path class="cls-10" d="M471.83,547.15l-25.13,11.54c-3.91,1.78-8.5-.17-9.91-4.23l-1.46-4.18c2.08,1.99,5.25,2.66,8.08,1.37l25.13-11.54c2.36-1.08,3.89-3.29,4.19-5.71,1.33,.85,2.39,2.14,2.94,3.72,1.24,3.55-.43,7.46-3.84,9.02Z"/>
          <path d="M458.47,538.09c2.58-.63,5.17-1.27,7.75-1.9,.96-.24,1.97-.58,2.96-.64,2.24-.13,4.41,1.19,5.28,3.27,1.33,3.15-.55,6-3.39,7.3l-6.14,2.82c-5.65,2.59-11.3,5.18-16.94,7.78-2.14,.98-4.28,1.68-6.49,.27-2.37-1.5-3.04-5.03-3.86-7.53-.7-2.13-.28-4.42,1.44-5.96,1.09-.97,2.43-1.24,3.79-1.57,2.88-.71,5.76-1.41,8.64-2.12,2.39-.59,1.38-4.27-1.02-3.68-2.88,.71-5.76,1.41-8.64,2.12-1.41,.35-2.81,.67-4.06,1.46-2.43,1.53-3.97,4.07-4.28,6.91-.21,1.89,.36,3.61,.97,5.36,.55,1.58,1.01,3.28,1.77,4.78,2.33,4.53,7.8,5.9,12.25,3.9,5.54-2.49,11.05-5.07,16.57-7.6,2.57-1.18,5.13-2.36,7.7-3.53,3.55-1.63,6.13-4.92,5.92-8.99-.16-3.11-1.87-6.02-4.6-7.58-2.28-1.31-4.79-1.44-7.29-.83-3.12,.76-6.23,1.53-9.35,2.29-2.39,.59-1.38,4.27,1.02,3.68h0Z"/>
        </g>
        <path d="M437.66,551.36c4.58-1.69,9.16-3.38,13.74-5.07,.76-.28,1.28-1.02,1.05-1.85-.2-.73-1.08-1.33-1.85-1.05-4.58,1.69-9.16,3.38-13.74,5.07-.76,.28-1.28,1.02-1.05,1.85,.2,.73,1.08,1.33,1.85,1.05h0Z"/>
        <path d="M456.23,544.9c1.93,0,1.93-3,0-3s-1.93,3,0,3h0Z"/>
      </g>
      <g>
        <path d="M325.94,577.52c.99,9.58,3.99,18.82,8.9,27.12,.98,1.66,3.58,.15,2.59-1.51-4.62-7.82-7.56-16.56-8.49-25.6-.2-1.9-3.2-1.92-3,0h0Z"/>
        <path d="M339.37,610.2c1.93,0,1.93-3,0-3s-1.93,3,0,3h0Z"/>
      </g>
      <path d="M327.53,499.72c4.51,3.63,9.44,6.68,14.75,9.01,.74,.32,1.61,.22,2.05-.54,.37-.64,.21-1.73-.54-2.05-5.06-2.22-9.84-5.07-14.14-8.54-.63-.51-1.51-.62-2.12,0-.53,.53-.63,1.61,0,2.12h0Z"/>
      <path d="M349.82,511.74c1.93,0,1.93-3,0-3s-1.93,3,0,3h0Z"/>
      <path d="M374.71,374.55c-.32-.45-.8-.78-1.43-1.01-.63-.23-1.4-.34-2.32-.34-1.32,0-2.68,.34-4.09,1.01-1.41,.67-2.59,1.7-3.54,3.08l-5.75-5.11c1.32-1.38,2.7-2.54,4.14-3.47,1.44-.94,2.97-1.65,4.58-2.14s3.32-.74,5.13-.74c1.56,0,3.1,.22,4.6,.64,1.5,.43,2.87,1.08,4.12,1.95,1.24,.88,2.23,1.96,2.96,3.25,.74,1.29,1.1,2.79,1.1,4.51,0,1.93-.49,3.57-1.47,4.92-.98,1.35-2.23,2.44-3.75,3.26-1.52,.83-3.09,1.44-4.72,1.84l-.14,2.85h-7.36l-.92-8.28h1.66c1.84,0,3.32-.27,4.46-.8,1.13-.54,1.95-1.16,2.46-1.89,.51-.72,.76-1.36,.76-1.91,0-.64-.16-1.19-.48-1.63Zm-8.16,18.19c1.01-.92,2.31-1.38,3.91-1.38s2.93,.46,3.93,1.38c1,.92,1.49,1.99,1.49,3.22s-.5,2.3-1.49,3.22c-1,.92-2.31,1.38-3.93,1.38s-2.9-.46-3.91-1.38c-1.01-.92-1.52-1.99-1.52-3.22s.51-2.3,1.52-3.22Z"/>
      <g>
        <path class="cls-5" d="M581.89,476.89h9.06s0-18.07,0-18.07h-9.06c-2.79,0-5.05,2.26-5.05,5.05v7.96c0,2.79,2.26,5.05,5.05,5.05Z"/>
        <path class="cls-10" d="M578.8,465.95c2.44,2.77,6.44,3.81,10.09,3.31,.25-.03,.55-.05,.68,.16,.07,.11,.07,.24,.06,.36-.04,1.47-.08,2.95-.12,4.42,0,.24-.02,.49-.14,.69-.14,.22-.4,.33-.65,.42-2.42,.88-5.11,.72-7.62,.15-.79-.18-1.58-.41-2.25-.86-1.07-.72-1.72-1.96-1.98-3.22-.27-1.27-.2-2.58-.12-3.87"/>
        <path d="M590.96,456.91c-2.59,0-5.19,0-7.78,0-1.52,0-2.96,.05-4.38,.73-2.38,1.15-3.82,3.63-3.87,6.24s0,5.1,0,7.64c.02,4.27,3.22,7.28,7.44,7.28,2.86,0,5.73,0,8.59,0,2.46,0,2.46-3.82,0-3.82s-4.72,0-7.08,0c-.86,0-1.92,.11-2.71-.08-1.48-.37-2.4-1.64-2.43-3.13-.04-2.46,0-4.92,0-7.37,0-1.23,.26-2.31,1.26-3.05,.9-.67,1.83-.62,2.92-.62,2.68,0,5.35,0,8.03,0,2.46,0,2.46-3.82,0-3.82h0Z"/>
      </g>
      <circle cx="665.34" cy="373.48" r="7.73"/>
      <g>
        <path class="cls-5" d="M730.7,476.89h-9.06v-18.07h9.06c2.79,0,5.05,2.26,5.05,5.05v7.96c0,2.79-2.26,5.05-5.05,5.05Z"/>
        <path class="cls-10" d="M733.8,465.95c-2.44,2.77-6.44,3.81-10.09,3.31-.25-.03-.55-.05-.68,.16-.07,.11-.07,.24-.06,.36,.04,1.47,.08,2.95,.12,4.42,0,.24,.02,.49,.14,.69,.14,.22,.4,.33,.65,.42,2.42,.88,5.11,.72,7.62,.15,.79-.18,1.58-.41,2.25-.86,1.07-.72,1.72-1.96,1.98-3.22,.27-1.27,.2-2.58,.12-3.87"/>
        <path d="M721.64,460.73h7.08c.86,0,1.92-.11,2.71,.08,1.48,.37,2.4,1.64,2.43,3.13,.04,2.46,0,4.92,0,7.37,0,1.23-.26,2.31-1.26,3.05-.9,.67-1.83,.62-2.92,.62h-8.03c-2.46,0-2.46,3.82,0,3.82h7.78c1.52,0,2.96-.05,4.38-.73,2.38-1.15,3.82-3.63,3.87-6.24s0-5.1,0-7.64c-.02-4.27-3.22-7.28-7.44-7.28h-8.59c-2.46,0-2.46,3.82,0,3.82h0Z"/>
      </g>
      <path class="cls-5" d="M657.21,648.71c-29.89,0-54.12-35.66-54.12-72.25s24.23-48.25,54.12-48.25,54.12,11.66,54.12,48.25-24.23,72.25-54.12,72.25Z"/>
      <path class="cls-10" d="M711.33,575.33c0,36.59-24.23,72.25-54.12,72.25s-54.12-35.66-54.12-72.25c0-1.62,.05-3.19,.14-4.71,2.01,34.83,25.41,67.41,53.98,67.41s51.97-32.58,53.98-67.41c.09,1.52,.14,3.09,.14,4.71Z"/>
      <ellipse class="cls-5" cx="656.81" cy="465.54" rx="66.25" ry="54.12"/>
      <path class="cls-10" d="M722.66,467.23c0,29.89-29.66,54.13-66.25,54.13s-66.25-24.24-66.25-54.13c0-1.85,.11-3.68,.34-5.48,3.39,27.29,31.61,48.59,65.91,48.59s62.52-21.3,65.91-48.59c.23,1.8,.34,3.63,.34,5.48Z"/>
      <ellipse class="cls-7" cx="656.81" cy="465.54" rx="52.66" ry="38.5"/>
      <path class="cls-6" d="M709.86,465.91c0,21.26-23.57,38.5-52.65,38.5s-52.66-17.24-52.66-38.5c0-2.28,.27-4.52,.79-6.7,4.35,18.07,25.92,31.8,51.87,31.8s47.52-13.73,51.86-31.8c.52,2.18,.79,4.42,.79,6.7Z"/>
      <path class="cls-5" d="M572.24,583.75h0c-3.25-1.88-4.54-5.92-2.98-9.34l11.51-25.14c1.79-3.9,6.55-5.42,10.27-3.27l4.53,2.62c3.72,2.15,4.78,7.03,2.29,10.53l-16.04,22.53c-2.18,3.06-6.32,3.96-9.58,2.08Z"/>
      <path class="cls-10" d="M569.26,573.89l11.5-25.14c1.8-3.9,6.55-5.42,10.27-3.27l3.84,2.21c-2.88-.15-5.72,1.42-7.01,4.24l-11.5,25.14c-1.08,2.36-.8,5.02,.55,7.06-1.57,.22-3.2-.06-4.66-.9-3.26-1.88-4.54-5.93-2.98-9.35Z"/>
      <path d="M577.66,560.63c1.05-2.29,2.09-4.58,3.14-6.86,1.11-2.42,1.99-5.51,4.73-6.51,3.16-1.15,6.06,1.26,8.65,2.77,3.06,1.78,4.03,5.23,1.98,8.22-2.87,4.19-5.9,8.28-8.84,12.42-1.77,2.49-3.54,4.97-5.31,7.46-1,1.41-1.94,3.12-3.48,4-4.46,2.54-9.43-2.19-7.59-6.8,1-2.5,2.25-4.92,3.37-7.37,.43-.94,.26-2.05-.69-2.61-.82-.49-2.18-.25-2.61,.69-1.12,2.45-2.27,4.89-3.36,7.35-2.26,5.05,.01,11,5.38,12.81,4.24,1.43,8.32-.58,10.78-4.04l4.56-6.4c3.64-5.12,7.31-10.22,10.93-15.35,2.51-3.57,2.36-8.35-.57-11.64-1.22-1.37-2.91-2.19-4.47-3.09-1.46-.85-2.94-1.85-4.6-2.26-3-.75-6.18,.07-8.48,2.12-1.31,1.17-2.01,2.66-2.72,4.21-1.37,2.99-2.74,5.98-4.11,8.97-.43,.94-.26,2.05,.69,2.61,.82,.49,2.18,.25,2.61-.69h0Z"/>
      <g>
        <rect class="cls-3" x="618.68" y="438.76" width="1" height="54.35"/>
        <rect class="cls-3" x="629.8" y="433.06" width="1" height="64.19"/>
        <rect class="cls-3" x="643.73" y="428.88" width="1" height="74.06"/>
      </g>
      <g>
        <rect class="cls-3" x="694.29" y="438.76" width="1" height="54.35"/>
        <rect class="cls-3" x="683.16" y="433.06" width="1" height="64.19"/>
        <rect class="cls-3" x="669.23" y="428.88" width="1" height="74.06"/>
      </g>
      <rect class="cls-3" x="656.71" y="428.88" width="1" height="74.06"/>
      <path d="M665.52,429.95c16.68,2.08,36.25,11.44,40.85,29.09,1.92,7.37,.46,15.01-3.55,21.44-4.45,7.15-11.51,12.35-19.07,15.84-17.45,8.06-39.65,7.64-56.66-1.38-7.21-3.82-13.7-9.32-17.53-16.63-3.49-6.66-4.09-14.32-1.67-21.41,2.56-7.49,8.31-13.62,14.84-17.91,7.79-5.12,16.95-8.12,26.18-9.14,2.62-.29,5.25-.42,7.89-.43,2.9,0,2.9-4.51,0-4.5-10.72,.03-21.48,2.27-31.08,7.13-8,4.05-15.33,10.14-19.71,18.07-4.11,7.43-5.27,16.25-2.82,24.42,2.57,8.56,8.58,15.56,15.77,20.67,17.05,12.12,41.03,14.2,60.57,7.56,16.67-5.66,33.33-19.71,32.12-38.92-1.25-19.83-20.07-32.7-37.84-36.96-2.74-.66-5.51-1.12-8.3-1.46-1.21-.15-2.25,1.14-2.25,2.25,0,1.34,1.04,2.1,2.25,2.25h0Z"/>
      <g>
        <rect class="cls-13" x="624.21" y="452.84" width="21.1" height="7.34" rx="1.07" ry="1.07" transform="translate(128.17 -139.05) rotate(13.89)"/>
        <path d="M643.34,463.88c-.21,0-.42-.03-.62-.08l-18.4-4.55c-.67-.17-1.23-.58-1.58-1.17-.36-.59-.46-1.28-.29-1.95l1.25-5.04c.34-1.38,1.74-2.22,3.12-1.88l18.4,4.55c.67,.17,1.23,.58,1.58,1.17,.36,.59,.46,1.28,.29,1.95l-1.25,5.04c-.17,.67-.58,1.23-1.17,1.59-.41,.25-.86,.37-1.32,.37Zm-17.89-7.44l17.57,4.35,1.04-4.21-17.57-4.35-1.04,4.21Z"/>
      </g>
      <g>
        <rect class="cls-13" x="669.1" y="452.84" width="21.1" height="7.34" rx="1.07" ry="1.07" transform="translate(1443.33 751.68) rotate(167.24)"/>
        <path d="M670.98,463.71c-.48,0-.95-.13-1.37-.4-.58-.37-.99-.94-1.14-1.61l-1.15-5.07c-.31-1.38,.55-2.76,1.94-3.08l18.49-4.18c1.38-.31,2.77,.56,3.08,1.94l1.15,5.07c.31,1.38-.56,2.76-1.94,3.08l-18.49,4.18c-.19,.04-.38,.06-.57,.06Zm-.63-7.32l.96,4.23,17.65-4-.96-4.23-17.65,4Z"/>
      </g>
      <path class="cls-7" d="M657.21,615.36c-18.61,0-33.7-22.21-33.7-44.99s15.09-30.04,33.7-30.04,33.7,7.26,33.7,30.04-15.09,44.99-33.7,44.99Z"/>
      <path class="cls-6" d="M690.91,570.08c0,22.78-15.09,44.99-33.71,44.99s-33.41-21.79-33.69-44.34c3.27,19.33,16.78,36.08,32.94,36.08,18.6,0,33.69-22.19,33.7-44.96,.5,2.49,.76,5.22,.76,8.23Z"/>
      <path d="M635.92,547.93c6.79-4.32,15.12-5.28,23.01-5.08,5.61,.14,11.44,.95,16.55,3.4,4.75,2.28,8.53,5.88,10.81,10.66,2.92,6.13,3.13,13.39,2.37,20.01-1.54,13.54-8.76,28.46-21.45,34.74-5.56,2.75-11.9,3.09-17.72,.98s-11.09-6.85-14.77-12.03c-4.3-6.07-7.11-13.11-8.47-20.41-1.37-7.4-1.47-15.84,1.66-22.83,.67-1.5,1.5-2.92,2.46-4.26,.61-.84,.14-2.12-.69-2.61-.95-.57-2.02-.15-2.61,.69-4.85,6.77-5.93,15.52-5.34,23.63s2.93,16.19,6.92,23.33c3.58,6.43,8.65,12.31,15.09,15.99,6.1,3.49,13.3,4.67,20.13,2.84,14.79-3.97,24.2-19.24,27.47-33.33,3.11-13.42,2.07-29.95-10.18-38.51-5.04-3.52-11.16-5.11-17.2-5.77-8.06-.89-16.85-.47-24.46,2.52-1.92,.75-3.77,1.65-5.51,2.76-2.07,1.32-.15,4.62,1.93,3.3h0Z"/>
      <path class="cls-2" d="M618.47,547.79c.22-.32,.44-.63,.67-.93s.02-.12-.05,.06c.05-.14,.26-.33,.36-.45,.46-.56,.95-1.1,1.46-1.62,.54-.55,1.09-1.07,1.67-1.57,.26-.22,.53-.44,.8-.66,.28-.23-.43,.31,.03-.02,.16-.11,.31-.23,.46-.34,1.18-.84,2.43-1.59,3.74-2.23,.31-.15,.62-.29,.94-.44,.68-.31-.38,.14,.02-.01,.18-.07,.35-.14,.53-.21,.72-.27,1.44-.51,2.18-.72,1.51-.43,2.6-2.14,2.1-3.69s-2.07-2.56-3.69-2.1c-6.69,1.93-12.46,6.17-16.4,11.9-.89,1.3-.28,3.39,1.08,4.1,1.53,.81,3.15,.31,4.1-1.08h0Z"/>
      <path class="cls-2" d="M638.96,536.52c3.86,0,3.87-6,0-6s-3.87,6,0,6h0Z"/>
      <path d="M607.37,558.89c1.61-5.21,4.16-10.14,7.82-14.22,3.43-3.82,7.64-6.79,12.27-8.98,10.22-4.84,22.03-5.87,33.19-5.52,9.57,.3,19.44,1.87,28,6.36,8.05,4.23,14.25,11.07,17.46,19.62,4.22,11.23,4.07,24.02,1.88,35.67-2.32,12.35-7.24,24.28-14.79,34.37-6.55,8.75-15.52,16.26-26.19,19.25-10.34,2.9-21.11,.88-30.18-4.69-9.95-6.11-17.46-15.68-22.69-25.99-5.81-11.45-8.96-24.31-9.14-37.14-.05-3.66,.12-7.35,.64-10.98,.15-1.03-.25-2.04-1.33-2.35-.9-.26-2.2,.31-2.35,1.33-2.03,14.04-.08,28.71,4.89,41.96,4.47,11.9,11.45,23.21,21.22,31.48,8.77,7.42,19.84,12.21,31.49,11.47s22.4-6.74,30.58-14.99c9.11-9.19,15.48-20.98,19.23-33.3,3.85-12.66,5.21-26.64,2.55-39.68-2.07-10.13-7.2-19.29-15.47-25.61s-18.11-8.92-28.03-10.06c-11.66-1.33-24.09-.86-35.36,2.58-10.87,3.31-20.5,9.99-25.96,20.15-1.41,2.62-2.53,5.4-3.41,8.24-.73,2.35,2.96,3.36,3.68,1.02h0Z"/>
      <path class="cls-2" d="M608.9,437.26c1.81-2.07,3.79-3.99,5.92-5.72,.12-.09,.23-.19,.35-.28,.07-.05,.57-.45,.22-.18-.32,.25,.08-.06,.14-.1,.15-.11,.3-.22,.45-.33,.54-.4,1.09-.78,1.64-1.15,1.17-.79,2.38-1.52,3.61-2.2,1.38-.76,1.94-2.77,1.08-4.1s-2.63-1.89-4.1-1.08c-5.09,2.81-9.72,6.52-13.55,10.9-1.03,1.18-1.25,3.1,0,4.24,1.13,1.04,3.14,1.26,4.24,0h0Z"/>
      <path class="cls-2" d="M627.85,423.83c3.86,0,3.87-6,0-6s-3.87,6,0,6h0Z"/>
      <path d="M644.74,414.23c20.99-3.23,44.09,2.01,60.03,16.51,6.61,6.02,11.87,13.58,14.49,22.18,2.63,8.62,2.48,17.86-.37,26.4-6.06,18.12-23.05,30.47-40.88,35.53-20.2,5.72-43.08,3.1-60.9-8.23-7.74-4.93-14.47-11.57-18.96-19.62s-6.66-18.13-5.25-27.62c.48-3.23,1.34-6.38,2.48-9.43,.86-2.3-2.83-3.3-3.68-1.02-4.02,10.72-4.05,22.73,.08,33.42,3.5,9.05,9.56,16.93,17.09,23.01,17.27,13.96,40.7,18.72,62.35,14.94,19.97-3.48,39.75-15.15,48.84-33.84,4.23-8.7,5.78-18.39,4.37-27.97s-5.84-18.22-12.04-25.42c-14.27-16.57-36.96-24.27-58.42-23.53-3.43,.12-6.84,.47-10.23,.99-1.02,.16-1.59,1.44-1.33,2.35,.3,1.09,1.32,1.49,2.35,1.33h0Z"/>
      <path d="M599.29,442.14c8.23-13.2,22.06-21.94,36.85-26.05,2.36-.66,1.36-4.34-1.02-3.68-15.75,4.38-30.39,13.77-39.14,27.81-1.3,2.09,2,4.01,3.3,1.93h0Z"/>
      <g>
        <g>
          <path class="cls-5" d="M736.16,585.26h0c-3.59,1.11-7.43-.7-8.87-4.16l-10.62-25.53c-1.65-3.97,.47-8.49,4.58-9.76l5-1.54c4.1-1.27,8.41,1.27,9.28,5.48l5.62,27.08c.76,3.68-1.4,7.33-4.98,8.44Z"/>
          <path class="cls-10" d="M727.69,580.4l-10.62-25.53c-1.64-3.97,.48-8.49,4.58-9.75l4.23-1.31c-2.07,2.01-2.85,5.15-1.66,8.03l10.62,25.53c1,2.39,3.14,4,5.55,4.4-.9,1.3-2.22,2.31-3.83,2.81-3.6,1.11-7.44-.7-8.88-4.17Z"/>
          <path d="M735.65,583.42c-2.24,.69-4.73-.11-6.07-2.07-.47-.69-.51-.89-.88-1.79-1.12-2.7-2.24-5.4-3.37-8.1-2.26-5.44-4.61-10.84-6.78-16.31-.66-1.65-.74-3.35,.12-4.94s2.36-2.34,4.05-2.86c1.45-.45,2.9-.97,4.37-1.34,2.18-.55,4.53,.35,5.78,2.22,1.08,1.62,1.25,4.11,1.64,5.97,.71,3.44,1.43,6.88,2.14,10.31s1.49,7.17,2.23,10.75c.14,.68,.31,1.36,.42,2.04,.46,2.67-1.07,5.24-3.65,6.1-2.32,.78-1.32,4.47,1.02,3.68,4.96-1.67,7.23-6.4,6.2-11.37-.6-2.91-1.21-5.82-1.81-8.74-.83-4.02-1.67-8.05-2.5-12.07-.44-2.14-.71-4.43-1.4-6.51-.95-2.87-3.24-5.13-6.15-6-2.23-.67-4.37-.26-6.52,.41-1.76,.54-3.65,.97-5.3,1.79-2.7,1.34-4.52,4.09-4.89,7.06s.9,5.27,1.96,7.81c1.51,3.62,3.01,7.24,4.52,10.86,1.35,3.24,2.69,6.47,4.04,9.71,.25,.6,.49,1.2,.75,1.79,1.19,2.8,3.72,4.96,6.75,5.49,1.45,.26,2.96,.21,4.37-.22,2.34-.72,1.34-4.41-1.02-3.68Z"/>
        </g>
        <path d="M724.73,546.15c1.52,4.64,3.05,9.27,4.57,13.91,.6,1.83,3.5,1.04,2.89-.8-1.52-4.64-3.05-9.27-4.57-13.91-.6-1.83-3.5-1.04-2.89,.8h0Z"/>
        <path d="M732.01,566.44c1.93,0,1.93-3,0-3s-1.93,3,0,3h0Z"/>
      </g>
      <g>
        <path d="M612.25,577.52c.99,9.58,3.99,18.82,8.9,27.12,.98,1.66,3.58,.15,2.59-1.51-4.62-7.82-7.56-16.56-8.49-25.6-.2-1.9-3.2-1.92-3,0h0Z"/>
        <path d="M625.68,610.2c1.93,0,1.93-3,0-3s-1.93,3,0,3h0Z"/>
      </g>
      <path d="M613.84,499.72c4.51,3.63,9.44,6.68,14.75,9.01,.74,.32,1.61,.22,2.05-.54,.37-.64,.21-1.73-.54-2.05-5.06-2.22-9.84-5.07-14.14-8.54-.63-.51-1.51-.62-2.12,0-.53,.53-.63,1.61,0,2.12h0Z"/>
      <path d="M636.13,511.74c1.93,0,1.93-3,0-3s-1.93,3,0,3h0Z"/>
      <ellipse class="cls-5" cx="657.21" cy="667.51" rx="28.07" ry="7.62"/>
      <path d="M662.57,376.99c-5.82,4.03-11.64,8.06-17.46,12.1-.84,.58-1.1,2.07,0,2.59,5.1,2.41,10.2,4.81,15.29,7.22,.72,.34,1.45,.68,2.17,1.02,1.74,.82,3.26-1.77,1.51-2.59-5.1-2.41-10.2-4.81-15.29-7.22-.72-.34-1.45-.68-2.17-1.02v2.59c5.82-4.03,11.64-8.06,17.46-12.1,1.58-1.09,.08-3.69-1.51-2.59h0Z"/>
      <g>
        <path class="cls-5" d="M11.76,110.48h9.06s0-18.07,0-18.07H11.76c-2.79,0-5.05,2.26-5.05,5.05v7.96c0,2.79,2.26,5.05,5.05,5.05Z"/>
        <path class="cls-10" d="M8.66,99.53c2.44,2.77,6.44,3.81,10.09,3.31,.25-.03,.55-.05,.68,.16,.07,.11,.07,.24,.06,.36-.04,1.47-.08,2.95-.12,4.42,0,.24-.02,.49-.14,.69-.14,.22-.4,.33-.65,.42-2.42,.88-5.11,.72-7.62,.15-.79-.18-1.58-.41-2.25-.86-1.07-.72-1.72-1.96-1.98-3.22-.27-1.27-.2-2.58-.12-3.87"/>
        <path d="M20.82,90.5c-2.59,0-5.19,0-7.78,0-1.52,0-2.96,.05-4.38,.73-2.38,1.15-3.82,3.63-3.87,6.24s0,5.1,0,7.64c.02,4.27,3.22,7.28,7.44,7.28,2.86,0,5.73,0,8.59,0,2.46,0,2.46-3.82,0-3.82s-4.72,0-7.08,0c-.86,0-1.92,.11-2.71-.08-1.48-.37-2.4-1.64-2.43-3.13-.04-2.46,0-4.92,0-7.37,0-1.23,.26-2.31,1.26-3.05,.9-.67,1.83-.62,2.92-.62,2.68,0,5.35,0,8.03,0,2.46,0,2.46-3.82,0-3.82h0Z"/>
      </g>
      <g>
        <path class="cls-5" d="M160.57,110.48h-9.06v-18.07h9.06c2.79,0,5.05,2.26,5.05,5.05v7.96c0,2.79-2.26,5.05-5.05,5.05Z"/>
        <path class="cls-10" d="M163.66,99.53c-2.44,2.77-6.44,3.81-10.09,3.31-.25-.03-.55-.05-.68,.16-.07,.11-.07,.24-.06,.36,.04,1.47,.08,2.95,.12,4.42,0,.24,.02,.49,.14,.69,.14,.22,.4,.33,.65,.42,2.42,.88,5.11,.72,7.62,.15,.79-.18,1.58-.41,2.25-.86,1.07-.72,1.72-1.96,1.98-3.22,.27-1.27,.2-2.58,.12-3.87"/>
        <path d="M151.5,94.32h7.08c.86,0,1.92-.11,2.71,.08,1.48,.37,2.4,1.64,2.43,3.13,.04,2.46,0,4.92,0,7.37,0,1.23-.26,2.31-1.26,3.05-.9,.67-1.83,.62-2.92,.62h-8.03c-2.46,0-2.46,3.82,0,3.82h7.78c1.52,0,2.96-.05,4.38-.73,2.38-1.15,3.82-3.63,3.87-6.24s0-5.1,0-7.64c-.02-4.27-3.22-7.28-7.44-7.28h-8.59c-2.46,0-2.46,3.82,0,3.82h0Z"/>
      </g>
      <path class="cls-5" d="M87.07,282.3c-29.89,0-54.12-35.66-54.12-72.25s24.23-48.25,54.12-48.25,54.12,11.66,54.12,48.25-24.23,72.25-54.12,72.25Z"/>
      <path class="cls-10" d="M140.81,209.93c0,36.59-24.23,72.25-54.12,72.25s-54.12-35.66-54.12-72.25c0-1.62,.05-3.19,.14-4.71,2.01,34.83,25.41,67.41,53.98,67.41s51.97-32.58,53.98-67.41c.09,1.52,.14,3.09,.14,4.71Z"/>
      <ellipse class="cls-5" cx="86.67" cy="99.13" rx="66.25" ry="54.12"/>
      <path class="cls-10" d="M152.52,100.82c0,29.89-29.66,54.13-66.25,54.13S20.02,130.71,20.02,100.82c0-1.85,.11-3.68,.34-5.48,3.39,27.29,31.61,48.59,65.91,48.59s62.52-21.3,65.91-48.59c.23,1.8,.34,3.63,.34,5.48Z"/>
      <ellipse class="cls-8" cx="86.67" cy="99.13" rx="52.66" ry="38.5"/>
      <path class="cls-1" d="M139.72,99.49c0,21.26-23.57,38.5-52.65,38.5s-52.66-17.24-52.66-38.5c0-2.28,.27-4.52,.79-6.7,4.35,18.07,25.92,31.8,51.87,31.8s47.52-13.73,51.86-31.8c.52,2.18,.79,4.42,.79,6.7Z"/>
      <g>
        <path d="M86.29,37.06c-.27-.31-.53-.64-.82-.94-.13-.13-.4-.56-.03,0l-1.3,2.26c-.73-.24-.97-.3-.72-.19,.11,.08,.24,.13,.37,.15,.45,0,.75,.09,1.17-.15,.47-.27,.76-.78,.76-1.32,0-1.2-1.21-2.26-1.67-3.28-.75-1.67,.57-2.59,1.79-3.51,1.39-1.04,2.62-2.14,3.65-3.56,1.99-2.72,2.76-6.12,1.85-9.4s-3.15-6.01-2.89-9.4c.15-1.93-2.86-1.92-3,0-.23,2.98,1.2,5.56,2.3,8.23,1.21,2.93,1.34,5.67-.42,8.41-.79,1.24-1.85,2.24-3.02,3.12-1.06,.79-2.18,1.58-2.87,2.74-.77,1.27-.86,2.75-.32,4.13,.3,.79,.76,1.48,1.21,2.2,.12,.2,.23,.44,.38,.62,.3,.38-.09-.07,.05-.68l.69-.9h-.01c.39-.04,.77-.09,1.16-.14,.79,.16-.24-.06-.45-.07-1.11-.05-1.91,1.33-1.3,2.26,.37,.55,.88,1.04,1.32,1.54,1.27,1.46,3.38-.67,2.12-2.12h0Z"/>
        <circle cx="87.07" cy="7.73" r="7.73"/>
      </g>
      <g>
        <rect class="cls-4" x="48.04" y="72.34" width="2" height="54.35"/>
        <rect class="cls-4" x="59.16" y="66.65" width="2" height="64.19"/>
        <rect class="cls-4" x="73.09" y="62.46" width="2" height="74.06"/>
      </g>
      <g>
        <rect class="cls-4" x="123.65" y="72.34" width="2" height="54.35"/>
        <rect class="cls-4" x="112.53" y="66.65" width="2" height="64.19"/>
        <rect class="cls-4" x="98.6" y="62.46" width="2" height="74.06"/>
      </g>
      <rect class="cls-4" x="86.07" y="62.46" width="2" height="74.06"/>
      <path d="M95.38,63.54c16.68,2.08,36.25,11.44,40.85,29.09,1.92,7.37,.46,15.01-3.55,21.44-4.45,7.15-11.51,12.35-19.07,15.84-17.45,8.06-39.65,7.64-56.66-1.38-7.21-3.82-13.7-9.32-17.53-16.63-3.49-6.66-4.09-14.32-1.67-21.41,2.56-7.49,8.31-13.62,14.84-17.91,7.79-5.12,16.95-8.12,26.18-9.14,2.62-.29,5.25-.42,7.89-.43,2.9,0,2.9-4.51,0-4.5-10.72,.03-21.48,2.27-31.08,7.13-8,4.05-15.33,10.14-19.71,18.07-4.11,7.43-5.27,16.25-2.82,24.42s8.58,15.56,15.77,20.67c17.05,12.12,41.03,14.2,60.57,7.56,16.67-5.66,33.33-19.71,32.12-38.92s-20.07-32.7-37.84-36.96c-2.74-.66-5.51-1.12-8.3-1.46-1.21-.15-2.25,1.14-2.25,2.25,0,1.34,1.04,2.1,2.25,2.25h0Z"/>
      <g>
        <rect class="cls-13" x="54.07" y="86.42" width="21.1" height="7.34" rx="1.07" ry="1.07" transform="translate(-13.66 11.58) rotate(-9.26)"/>
        <path d="M55.68,96.75c-1.24,0-2.33-.9-2.54-2.16l-.84-5.13c-.23-1.4,.73-2.73,2.13-2.95l18.71-3.05c.67-.11,1.36,.05,1.92,.45s.93,1,1.04,1.67l.84,5.13c.11,.68-.05,1.36-.45,1.92s-1,.93-1.67,1.04l-18.71,3.05c-.14,.02-.28,.03-.42,.03Zm-.35-7.35l.7,4.28,17.87-2.91-.7-4.28-17.87,2.91Zm18.99,1.3h0Z"/>
      </g>
      <g>
        <rect class="cls-13" x="98.97" y="86.42" width="21.1" height="7.34" rx="1.07" ry="1.07" transform="translate(175.08 215.84) rotate(-156.98)"/>
        <path d="M117.22,98.76c-.33,0-.68-.07-1-.21l-17.44-7.41c-.63-.27-1.12-.77-1.38-1.41-.26-.64-.25-1.34,.02-1.97l2.03-4.78c.27-.63,.77-1.12,1.41-1.38,.64-.26,1.34-.25,1.97,.02l17.44,7.41c1.3,.55,1.92,2.07,1.36,3.37l-2.03,4.78c-.42,.98-1.37,1.57-2.37,1.57Zm-16.88-10.21l16.66,7.08,1.7-4-16.66-7.08-1.7,4Z"/>
      </g>
      <path class="cls-2" d="M87.07,248.94c-18.61,0-33.7-22.21-33.7-44.99s15.09-30.04,33.7-30.04,33.7,7.26,33.7,30.04-15.09,44.99-33.7,44.99Z"/>
      <path class="cls-5" d="M120.77,203.67c0,22.78-15.09,44.99-33.71,44.99s-33.41-21.79-33.69-44.34c3.27,19.33,16.78,36.08,32.94,36.08,18.6,0,33.69-22.19,33.7-44.96,.5,2.49,.76,5.22,.76,8.23Z"/>
      <path d="M87.07,247.62c-15.56-.1-26.06-15.51-29.84-29.02-3.58-12.81-3.38-30.07,9.46-37.65,5.37-3.17,11.72-4.27,17.87-4.5s13.07,.3,19.13,2.66c5.37,2.09,9.78,5.92,12.33,11.12,3.29,6.72,3.39,14.98,2.23,22.23-1.3,8.12-4.4,15.97-9.31,22.58-4.19,5.63-10.04,10.39-16.97,12.02-1.62,.38-3.24,.55-4.9,.56-2.46,.02-2.46,3.84,0,3.82,17.26-.12,29.18-16.5,33.47-31.65s3.32-33.4-10.94-42.01c-5.9-3.56-12.92-4.86-19.72-5.14s-14.49,.33-21.08,3.04c-6.1,2.51-11.24,6.86-14.1,12.87-3.63,7.63-3.81,16.52-2.52,24.73,1.36,8.69,4.79,17.23,10.15,24.24,4.78,6.25,11.31,11.56,19.13,13.28,1.84,.41,3.73,.62,5.61,.63,2.46,.02,2.46-3.8,0-3.82Z"/>
      <path class="cls-2" d="M48.33,181.38c.22-.32,.44-.63,.67-.93s.02-.12-.05,.06c.05-.14,.26-.33,.36-.45,.46-.56,.95-1.1,1.46-1.62,.54-.55,1.09-1.07,1.67-1.57,.26-.22,.53-.44,.8-.66,.28-.23-.43,.31,.03-.02,.16-.11,.31-.23,.46-.34,1.18-.84,2.43-1.59,3.74-2.23,.31-.15,.62-.29,.94-.44,.68-.31-.38,.14,.02-.01,.18-.07,.35-.14,.53-.21,.72-.27,1.44-.51,2.18-.72,1.51-.43,2.6-2.14,2.1-3.69s-2.07-2.56-3.69-2.1c-6.69,1.93-12.46,6.17-16.4,11.9-.89,1.3-.28,3.39,1.08,4.1,1.53,.81,3.15,.31,4.1-1.08h0Z"/>
      <path class="cls-2" d="M68.82,170.11c3.86,0,3.87-6,0-6s-3.87,6,0,6h0Z"/>
      <path d="M52.67,261.81c-8.89-10.91-14.44-24.46-16.72-38.29-1.94-11.74-1.89-24.98,3.13-36.01,3.82-8.39,10.47-14.69,18.81-18.5,8.91-4.07,19-5.26,28.7-5.3s19.88,1.04,28.91,4.97c8.34,3.63,15.13,9.71,19.12,17.93,5.07,10.44,5.41,22.89,3.96,34.2-1.61,12.52-6.04,24.81-12.99,35.35-6.12,9.28-14.65,17.67-25.19,21.69-5.09,1.94-10.48,2.82-15.92,2.45-6.74-.46-13.18-2.95-18.82-6.6-2.89-1.87-5.54-4.06-8.02-6.44-1.77-1.71-4.47,.99-2.7,2.7,10.21,9.84,23.74,15.9,38.08,13.78,11.56-1.7,21.78-8.6,29.42-17.21,8.71-9.82,14.69-22.02,17.9-34.71,3.18-12.56,4.08-26.46,.62-39.07-2.7-9.82-8.54-18.36-17.11-23.94s-18.83-7.87-28.88-8.64c-10.69-.82-21.88-.23-32.17,2.93-9.34,2.87-17.78,8.17-23.45,16.24-6.79,9.66-8.65,21.95-8.26,33.52,.51,15.13,4.91,30.28,12.85,43.19,1.82,2.95,3.84,5.77,6.03,8.46,.66,.81,2.02,.67,2.7,0,.8-.78,.65-1.91,0-2.7h0Z"/>
      <path class="cls-2" d="M38.76,70.84c1.81-2.07,3.79-3.99,5.92-5.72,.12-.09,.23-.19,.35-.28,.07-.05,.57-.45,.22-.18-.32,.25,.08-.06,.14-.1,.15-.11,.3-.22,.45-.33,.54-.4,1.09-.78,1.64-1.15,1.17-.79,2.38-1.52,3.61-2.2,1.38-.76,1.94-2.77,1.08-4.1s-2.63-1.89-4.1-1.08c-5.09,2.81-9.72,6.52-13.55,10.9-1.03,1.18-1.25,3.1,0,4.24,1.13,1.04,3.14,1.26,4.24,0h0Z"/>
      <path class="cls-2" d="M57.71,57.41c3.86,0,3.87-6,0-6s-3.87,6,0,6h0Z"/>
      <path d="M74.6,47.82c20.99-3.23,44.09,2.01,60.03,16.51,6.61,6.02,11.87,13.58,14.49,22.18s2.48,17.86-.37,26.4c-6.06,18.12-23.05,30.47-40.88,35.53-20.2,5.72-43.08,3.1-60.9-8.23-7.74-4.93-14.47-11.57-18.96-19.62-4.66-8.35-6.66-18.13-5.25-27.62,.48-3.23,1.34-6.38,2.48-9.43,.86-2.3-2.83-3.3-3.68-1.02-4.02,10.72-4.05,22.73,.08,33.42,3.5,9.05,9.56,16.93,17.09,23.01,17.27,13.96,40.7,18.72,62.35,14.94,19.97-3.48,39.75-15.15,48.84-33.84,4.23-8.7,5.78-18.39,4.37-27.97-1.39-9.45-5.84-18.22-12.04-25.42-14.27-16.57-36.96-24.27-58.42-23.53-3.43,.12-6.84,.47-10.23,.99-1.02,.16-1.59,1.44-1.33,2.35,.3,1.09,1.32,1.49,2.35,1.33h0Z"/>
      <path d="M29.15,75.72c8.23-13.2,22.06-21.94,36.85-26.05,2.36-.66,1.36-4.34-1.02-3.68-15.75,4.38-30.39,13.77-39.14,27.81-1.3,2.09,2,4.01,3.3,1.93h0Z"/>
      <g>
        <path d="M42.11,211.1c.99,9.58,3.99,18.82,8.9,27.12,.98,1.66,3.58,.15,2.59-1.51-4.62-7.82-7.56-16.56-8.49-25.6-.2-1.9-3.2-1.92-3,0h0Z"/>
        <path d="M55.54,243.79c1.93,0,1.93-3,0-3s-1.93,3,0,3h0Z"/>
      </g>
      <path d="M43.71,133.31c4.51,3.63,9.44,6.68,14.75,9.01,.74,.32,1.61,.22,2.05-.54,.37-.64,.21-1.73-.54-2.05-5.06-2.22-9.84-5.07-14.14-8.54-.63-.51-1.51-.62-2.12,0-.53,.53-.63,1.61,0,2.12h0Z"/>
      <path d="M66,145.32c1.93,0,1.93-3,0-3s-1.93,3,0,3h0Z"/>
      <ellipse class="cls-5" cx="87.07" cy="301.09" rx="28.07" ry="7.62"/>
      <g>
        <rect class="cls-9" x="43.51" y="180.77" width="87.12" height="60.66" rx="7.39" ry="7.39" transform="translate(-14.65 6.65) rotate(-4.04)"/>
        <path class="cls-12" d="M123.76,238.59l-72.16,5.09c-4.07,.29-7.6-2.78-7.89-6.85l-.2-2.78c.93,.34,1.95,.5,3.01,.42l72.16-5.09c4.07-.29,7.14-3.83,6.85-7.9l-3.03-42.98c2.68,.95,4.67,3.41,4.88,6.44l3.23,45.75c.29,4.08-2.78,7.61-6.85,7.9Z"/>
        <path d="M125.28,236.9c-6.61,.47-13.21,.93-19.82,1.4-11.97,.84-23.94,1.69-35.9,2.53l-12.75,.9c-2.69,.19-5.76,.84-7.94-1.19-2.35-2.19-1.94-6.44-2.15-9.38-.39-5.58-.79-11.16-1.18-16.74s-.79-11.26-1.19-16.89l-.35-5.01c-.11-1.54-.21-3.02,.6-4.44,1.68-2.94,4.75-2.81,7.65-3.01l12.51-.88c11.92-.84,23.84-1.68,35.76-2.52,6.83-.48,13.66-1.1,20.49-1.45,3.06-.16,5.68,1.9,6,5.01,.1,.97,.14,1.95,.21,2.92,.35,4.98,.7,9.97,1.06,14.95,.65,9.24,1.44,18.47,1.96,27.72,.17,3.01-1.8,5.79-4.94,6.08-1.03,.1-1.91,.81-1.91,1.91,0,.96,.88,2.01,1.91,1.91,4.8-.45,8.67-4.18,8.78-9.11,.02-.98-.11-1.97-.18-2.94-.35-4.91-.69-9.82-1.04-14.72-.68-9.56-1.2-19.15-2.03-28.7-.33-3.88-2.7-7.21-6.47-8.43-1.4-.46-2.82-.46-4.26-.36l-10.03,.71c-11.98,.85-23.95,1.69-35.93,2.54-8.29,.59-16.59,1.14-24.88,1.76-5.58,.41-9.52,4.76-9.12,10.39l.85,11.97c.75,10.69,1.51,21.39,2.26,32.08,.14,1.96,.4,3.87,1.49,5.57,1.85,2.89,5.09,4.51,8.51,4.32,2.52-.14,5.04-.36,7.55-.53l34.61-2.44c9.44-.67,18.89-1.33,28.33-2l1.56-.11c2.44-.17,2.46-3.99,0-3.82Z"/>
        <circle class="cls-2" cx="88.47" cy="211" r="11.49"/>
        <path d="M88.47,224.36c-7.37,0-13.36-5.99-13.36-13.36s5.99-13.36,13.36-13.36,13.36,5.99,13.36,13.36-5.99,13.36-13.36,13.36Zm0-22.97c-5.3,0-9.61,4.31-9.61,9.61s4.31,9.61,9.61,9.61,9.61-4.31,9.61-9.61-4.31-9.61-9.61-9.61Z"/>
        <g>
          <path d="M43.21,193.71c7.11-.33,14.22-.65,21.32-.98,1.02-.05,2.05-.09,3.07-.14,1.44-.07,1.45-2.32,0-2.25-7.11,.33-14.22,.65-21.32,.98-1.02,.05-2.05,.09-3.07,.14-1.44,.07-1.45,2.32,0,2.25h0Z"/>
          <path d="M72.32,192.32c1.45,0,1.45-2.25,0-2.25s-1.45,2.25,0,2.25h0Z"/>
        </g>
        <circle class="cls-12" cx="120.47" cy="194.24" r="2.21"/>
        <circle class="cls-12" cx="116.74" cy="188.57" r=".74"/>
        <circle class="cls-12" cx="114.15" cy="191.2" r=".83"/>
      </g>
      <g>
        <g>
          <path class="cls-5" d="M115.65,215.79h0c-2.01-3.17-1.27-7.35,1.7-9.65l21.87-16.93c3.4-2.63,8.32-1.76,10.61,1.86l2.8,4.42c2.3,3.63,.97,8.45-2.86,10.39l-24.66,12.51c-3.35,1.7-7.44,.57-9.45-2.6Z"/>
          <path class="cls-10" d="M118.14,206.35l21.86-16.93c3.4-2.62,8.32-1.76,10.61,1.87l2.37,3.74c-2.48-1.47-5.72-1.4-8.18,.5l-21.86,16.93c-2.05,1.59-3.04,4.08-2.79,6.51-1.49-.53-2.81-1.54-3.71-2.96-2.01-3.18-1.27-7.36,1.7-9.66Z"/>
          <path d="M117.3,214.83c-1.31-2.07-1.12-4.83,.6-6.62,.5-.52,1.1-.95,1.67-1.4l6.93-5.37c4.65-3.6,9.21-7.37,13.97-10.82,.12-.08,.79-.5,1.3-.7,1.1-.41,2.29-.44,3.42-.11,1.75,.51,2.7,1.79,3.62,3.25,.83,1.31,1.81,2.6,2.49,3.99,.98,2.01,.56,4.5-1.01,6.09-1.34,1.36-3.61,2.15-5.28,3l-9.45,4.79c-3.23,1.64-6.46,3.28-9.7,4.92-.58,.29-1.15,.61-1.74,.88-2.45,1.14-5.34,.34-6.84-1.92-1.36-2.04-4.67-.13-3.3,1.93,2.87,4.31,8.02,5.34,12.52,3.05l7.81-3.96,11.02-5.59c1.93-.98,3.96-1.86,5.82-2.97,2.62-1.57,4.25-4.35,4.47-7.38,.17-2.35-.75-4.39-1.97-6.31-.96-1.52-1.85-3.17-3-4.56-1.86-2.25-4.91-3.51-7.82-3.21-3.11,.32-5.28,2.26-7.63,4.08-3.06,2.37-6.12,4.74-9.18,7.11l-8.5,6.58c-.51,.4-1.04,.79-1.54,1.19-2.27,1.83-3.59,4.8-3.37,7.72,.12,1.5,.56,2.98,1.36,4.25,1.31,2.07,4.62,.16,3.3-1.93Z"/>
        </g>
        <path d="M150.42,194.53c-4.08,2.69-8.15,5.37-12.23,8.06-.68,.45-.96,1.33-.54,2.05,.39,.67,1.37,.99,2.05,.54,4.08-2.69,8.15-5.37,12.23-8.06,.68-.45,.96-1.33,.54-2.05-.39-.67-1.37-.99-2.05-.54h0Z"/>
        <path d="M134.18,207.97c1.93,0,1.93-3,0-3s-1.93,3,0,3h0Z"/>
      </g>
      <g>
        <path class="cls-5" d="M60.12,215.73h0c-2,3.18-6.08,4.32-9.44,2.63l-24.71-12.42c-3.84-1.93-5.18-6.74-2.9-10.38l2.78-4.43c2.28-3.64,7.2-4.52,10.61-1.9l21.92,16.85c2.98,2.29,3.73,6.47,1.73,9.65Z"/>
        <path class="cls-10" d="M50.54,217.57l-24.71-12.41c-3.83-1.94-5.18-6.75-2.89-10.38l2.35-3.75c-.26,2.87,1.21,5.76,3.98,7.16l24.71,12.41c2.32,1.16,4.99,.98,7.08-.29,.16,1.57-.18,3.2-1.07,4.62-2,3.19-6.09,4.32-9.45,2.63Z"/>
        <path d="M58.48,214.77c-1.25,1.99-3.75,2.9-6,2.26-.65-.18-1.22-.51-1.82-.81l-7.84-3.94c-5.26-2.64-10.57-5.21-15.79-7.94-1.58-.83-2.74-2.14-3.07-3.92s.37-3.27,1.3-4.75c.8-1.28,1.54-2.65,2.44-3.87,1.34-1.81,3.73-2.6,5.88-1.95,1.86,.57,3.61,2.32,5.13,3.49,2.78,2.14,5.57,4.28,8.35,6.42s5.8,4.46,8.71,6.69c.55,.42,1.12,.82,1.65,1.27,.57,.48,1.46,1.73,1.75,2.86,.38,1.46,.06,2.91-.7,4.18-1.26,2.12,2.04,4.04,3.3,1.93,1.65-2.78,1.79-6.12,.36-9.02-.75-1.51-1.94-2.6-3.25-3.6l-7.07-5.44c-3.26-2.5-6.52-5.01-9.77-7.51-1.73-1.33-3.43-2.89-5.31-4.02-2.62-1.57-5.87-1.66-8.62-.4-2.1,.97-3.4,2.69-4.59,4.59-.98,1.56-2.13,3.11-2.82,4.83-1.09,2.71-.75,5.99,.91,8.41s4.2,3.46,6.71,4.72c3.5,1.76,7.01,3.52,10.51,5.28l9.39,4.72c.56,.28,1.11,.57,1.67,.84,2.82,1.32,6.12,1.28,8.81-.35,1.25-.75,2.31-1.81,3.08-3.05,1.31-2.09-1.99-4.01-3.3-1.93Z"/>
      </g>
      <g>
        <path class="cls-5" d="M301.48,117.92h9.06s0-18.07,0-18.07h-9.06c-2.79,0-5.05,2.26-5.05,5.05v7.96c0,2.79,2.26,5.05,5.05,5.05Z"/>
        <path class="cls-10" d="M298.39,106.97c2.44,2.77,6.44,3.81,10.09,3.31,.25-.03,.55-.05,.68,.16,.07,.11,.07,.24,.06,.36-.04,1.47-.08,2.95-.12,4.42,0,.24-.02,.49-.14,.69-.14,.22-.4,.33-.65,.42-2.42,.88-5.11,.72-7.62,.15-.79-.18-1.58-.41-2.25-.86-1.07-.72-1.72-1.96-1.98-3.22-.27-1.27-.2-2.58-.12-3.87"/>
        <path d="M310.55,97.94c-2.59,0-5.19,0-7.78,0-1.52,0-2.96,.05-4.38,.73-2.38,1.15-3.82,3.63-3.87,6.24s0,5.1,0,7.64c.02,4.27,3.22,7.28,7.44,7.28,2.86,0,5.73,0,8.59,0,2.46,0,2.46-3.82,0-3.82s-4.72,0-7.08,0c-.86,0-1.92,.11-2.71-.08-1.48-.37-2.4-1.64-2.43-3.13-.04-2.46,0-4.92,0-7.37,0-1.23,.26-2.31,1.26-3.05,.9-.67,1.83-.62,2.92-.62,2.68,0,5.35,0,8.03,0,2.46,0,2.46-3.82,0-3.82h0Z"/>
      </g>
      <g>
        <path class="cls-5" d="M450.29,117.92h-9.06v-18.07h9.06c2.79,0,5.05,2.26,5.05,5.05v7.96c0,2.79-2.26,5.05-5.05,5.05Z"/>
        <path class="cls-10" d="M453.38,106.97c-2.44,2.77-6.44,3.81-10.09,3.31-.25-.03-.55-.05-.68,.16-.07,.11-.07,.24-.06,.36,.04,1.47,.08,2.95,.12,4.42,0,.24,.02,.49,.14,.69,.14,.22,.4,.33,.65,.42,2.42,.88,5.11,.72,7.62,.15,.79-.18,1.58-.41,2.25-.86,1.07-.72,1.72-1.96,1.98-3.22,.27-1.27,.2-2.58,.12-3.87"/>
        <path d="M441.23,101.75h7.08c.86,0,1.92-.11,2.71,.08,1.48,.37,2.4,1.64,2.43,3.13,.04,2.46,0,4.92,0,7.37,0,1.23-.26,2.31-1.26,3.05-.9,.67-1.83,.62-2.92,.62h-8.03c-2.46,0-2.46,3.82,0,3.82h7.78c1.52,0,2.96-.05,4.38-.73,2.38-1.15,3.82-3.63,3.87-6.24s0-5.1,0-7.64c-.02-4.27-3.22-7.28-7.44-7.28h-8.59c-2.46,0-2.46,3.82,0,3.82h0Z"/>
      </g>
      <path class="cls-5" d="M376.8,289.73c-29.89,0-54.12-35.66-54.12-72.25s24.23-48.25,54.12-48.25,54.12,11.66,54.12,48.25-24.23,72.25-54.12,72.25Z"/>
      <path class="cls-10" d="M429.96,216.73c0,36.59-24.23,72.25-54.12,72.25s-54.12-35.66-54.12-72.25c0-1.62,.05-3.19,.14-4.71,2.01,34.83,25.41,67.41,53.98,67.41s51.97-32.58,53.98-67.41c.09,1.52,.14,3.09,.14,4.71Z"/>
      <ellipse class="cls-5" cx="376.4" cy="106.56" rx="66.25" ry="54.12"/>
      <path class="cls-10" d="M442.25,108.25c0,29.89-29.66,54.13-66.25,54.13s-66.25-24.24-66.25-54.13c0-1.85,.11-3.68,.34-5.48,3.39,27.29,31.61,48.59,65.91,48.59s62.52-21.3,65.91-48.59c.23,1.8,.34,3.63,.34,5.48Z"/>
      <ellipse class="cls-8" cx="376.4" cy="106.56" rx="52.66" ry="38.5"/>
      <path class="cls-1" d="M429.45,106.93c0,21.26-23.57,38.5-52.65,38.5s-52.66-17.24-52.66-38.5c0-2.28,.27-4.52,.79-6.7,4.35,18.07,25.92,31.8,51.87,31.8s47.52-13.73,51.86-31.8c.52,2.18,.79,4.42,.79,6.7Z"/>
      <g>
        <path d="M376.02,44.5c-.27-.31-.53-.64-.82-.94-.13-.13-.4-.56-.03,0l-1.3,2.26c-.73-.24-.97-.3-.72-.19,.11,.08,.24,.13,.37,.15,.45,0,.75,.09,1.17-.15,.47-.27,.76-.78,.76-1.32,0-1.2-1.21-2.26-1.67-3.28-.75-1.67,.57-2.59,1.79-3.51,1.39-1.04,2.62-2.14,3.65-3.56,1.99-2.72,2.76-6.12,1.85-9.4s-3.15-6.01-2.89-9.4c.15-1.93-2.86-1.92-3,0-.23,2.98,1.2,5.56,2.3,8.23,1.21,2.93,1.34,5.67-.42,8.41-.79,1.24-1.85,2.24-3.02,3.12-1.06,.79-2.18,1.58-2.87,2.74-.77,1.27-.86,2.75-.32,4.13,.3,.79,.76,1.48,1.21,2.2,.12,.2,.23,.44,.38,.62,.3,.38-.09-.07,.05-.68l.69-.9h-.01c.39-.04,.77-.09,1.16-.14,.79,.16-.24-.06-.45-.07-1.11-.05-1.91,1.33-1.3,2.26,.37,.55,.88,1.04,1.32,1.54,1.27,1.46,3.38-.67,2.12-2.12h0Z"/>
        <circle cx="376.8" cy="15.17" r="7.73"/>
      </g>
      <g>
        <rect class="cls-4" x="337.76" y="79.78" width="2" height="54.35"/>
        <rect class="cls-4" x="348.89" y="74.09" width="2" height="64.19"/>
        <rect class="cls-4" x="362.82" y="69.9" width="2" height="74.06"/>
      </g>
      <g>
        <rect class="cls-4" x="413.38" y="79.78" width="2" height="54.35"/>
        <rect class="cls-4" x="402.25" y="74.09" width="2" height="64.19"/>
        <rect class="cls-4" x="388.32" y="69.9" width="2" height="74.06"/>
      </g>
      <rect class="cls-4" x="375.8" y="69.9" width="2" height="74.06"/>
      <path d="M385.11,70.97c16.68,2.08,36.25,11.44,40.85,29.09,1.92,7.37,.46,15.01-3.55,21.44-4.45,7.15-11.51,12.35-19.07,15.84-17.45,8.06-39.65,7.64-56.66-1.38-7.21-3.82-13.7-9.32-17.53-16.63-3.49-6.66-4.09-14.32-1.67-21.41,2.56-7.49,8.31-13.62,14.84-17.91,7.79-5.12,16.95-8.12,26.18-9.14,2.62-.29,5.25-.42,7.89-.43,2.9,0,2.9-4.51,0-4.5-10.72,.03-21.48,2.27-31.08,7.13-8,4.05-15.33,10.14-19.71,18.07-4.11,7.43-5.27,16.25-2.82,24.42,2.57,8.56,8.58,15.56,15.77,20.67,17.05,12.12,41.03,14.2,60.57,7.56,16.67-5.66,33.33-19.71,32.12-38.92-1.25-19.83-20.07-32.7-37.84-36.96-2.74-.66-5.51-1.12-8.3-1.46-1.21-.15-2.25,1.14-2.25,2.25,0,1.34,1.04,2.1,2.25,2.25h0Z"/>
      <path class="cls-2" d="M376.8,256.38c-18.61,0-33.7-22.21-33.7-44.99s15.09-30.04,33.7-30.04,33.7,7.26,33.7,30.04-15.09,44.99-33.7,44.99Z"/>
      <path class="cls-5" d="M410.5,211.1c0,22.78-15.09,44.99-33.71,44.99s-33.41-21.79-33.69-44.34c3.27,19.33,16.78,36.08,32.94,36.08,18.6,0,33.69-22.19,33.7-44.96,.5,2.49,.76,5.22,.76,8.23Z"/>
      <path d="M352.53,191.27c5.66-5.22,13.57-6.99,21.05-7.35,6.18-.3,12.53,.13,18.43,2.12,4.85,1.64,9.3,4.57,12.16,8.88,3.56,5.36,4.54,11.9,4.4,18.22-.31,13.93-6.44,29.51-18.34,37.54-5.1,3.44-11.3,5.21-17.43,4.02s-11.78-5.09-16-9.9c-4.77-5.44-8.06-12.17-9.95-19.12-2.06-7.56-2.73-15.98-.64-23.6,.46-1.69,1.07-3.32,1.87-4.88,1.11-2.19-2.18-4.12-3.3-1.93-3.94,7.75-4.21,16.84-2.92,25.28,1.22,7.95,4.17,15.79,8.73,22.44,4.16,6.06,9.69,11.26,16.58,14.03s13.81,2.37,20.26-.43c14.25-6.21,22.44-22.46,24.44-37.17,1.03-7.55,.74-15.56-2.36-22.62-2.4-5.48-6.72-9.89-12.05-12.57-5.71-2.87-12.15-3.94-18.49-4.14-8.3-.27-17.19,.73-24.47,5.01-1.68,.99-3.25,2.18-4.69,3.5-1.81,1.67,.89,4.37,2.7,2.7h0Z"/>
      <path class="cls-2" d="M338.05,188.81c.22-.32,.44-.63,.67-.93s.02-.12-.05,.06c.05-.14,.26-.33,.36-.45,.46-.56,.95-1.1,1.46-1.62,.54-.55,1.09-1.07,1.67-1.57,.26-.22,.53-.44,.8-.66,.28-.23-.43,.31,.03-.02,.16-.11,.31-.23,.46-.34,1.18-.84,2.43-1.59,3.74-2.23,.31-.15,.62-.29,.94-.44,.68-.31-.38,.14,.02-.01,.18-.07,.35-.14,.53-.21,.72-.27,1.44-.51,2.18-.72,1.51-.43,2.6-2.14,2.1-3.69s-2.07-2.56-3.69-2.1c-6.69,1.93-12.46,6.17-16.4,11.9-.89,1.3-.28,3.39,1.08,4.1,1.53,.81,3.15,.31,4.1-1.08h0Z"/>
      <path class="cls-2" d="M358.55,177.54c3.86,0,3.87-6,0-6s-3.87,6,0,6h0Z"/>
      <path d="M379.65,171.18c11.82,.32,24.21,2.55,33.93,9.72s14.54,19.67,15.28,31.87c.98,15.9-2.85,32.2-10.64,46.07-6.75,12.01-17.1,23.14-30.59,27.31-6.79,2.1-14,2.21-20.84,.25-7.82-2.23-14.71-6.92-20.38-12.67-1.54-1.56-2.99-3.21-4.37-4.91-.65-.81-2.02-.67-2.7,0-.8,.78-.65,1.9,0,2.7,5.54,6.84,12.45,12.8,20.54,16.39,7.36,3.27,15.36,4.45,23.33,3.19,14.72-2.34,26.8-12.84,34.92-24.84,9.37-13.85,14.41-30.74,14.68-47.43,.22-13.82-3.09-28.32-13.5-38.09-9.3-8.73-22.13-12.17-34.56-13.13-1.7-.13-3.41-.21-5.11-.26-2.46-.07-2.46,3.75,0,3.82h0Z"/>
      <path d="M336.02,259.99c-5.12-8.82-8.55-18.53-10.27-28.57-1.53-8.96-1.78-18.46,.14-27.39,1.4-6.5,4.07-12.79,8.46-17.86,3.97-4.58,9.08-8.05,14.68-10.34,7.05-2.89,14.66-4.14,22.23-4.55,2.45-.13,2.46-3.95,0-3.82-13.74,.73-28.27,4.27-38.18,14.45-11.7,12.02-13.65,30.12-11.67,46.05,1.48,11.93,5.27,23.54,11.31,33.95,1.23,2.13,4.54,.2,3.3-1.93h0Z"/>
      <path class="cls-2" d="M328.48,78.28c1.81-2.07,3.79-3.99,5.92-5.72,.12-.09,.23-.19,.35-.28,.07-.05,.57-.45,.22-.18-.32,.25,.08-.06,.14-.1,.15-.11,.3-.22,.45-.33,.54-.4,1.09-.78,1.64-1.15,1.17-.79,2.38-1.52,3.61-2.2,1.38-.76,1.94-2.77,1.08-4.1s-2.63-1.89-4.1-1.08c-5.09,2.81-9.72,6.52-13.55,10.9-1.03,1.18-1.25,3.1,0,4.24,1.13,1.04,3.14,1.26,4.24,0h0Z"/>
      <path class="cls-2" d="M347.44,64.85c3.86,0,3.87-6,0-6s-3.87,6,0,6h0Z"/>
      <path d="M364.32,55.25c20.99-3.23,44.09,2.01,60.03,16.51,6.61,6.02,11.87,13.58,14.49,22.18,2.63,8.62,2.48,17.86-.37,26.4-6.06,18.12-23.05,30.47-40.88,35.53-20.2,5.72-43.08,3.1-60.9-8.23-7.74-4.93-14.47-11.57-18.96-19.62-4.66-8.35-6.66-18.13-5.25-27.62,.48-3.23,1.34-6.38,2.48-9.43,.86-2.3-2.83-3.3-3.68-1.02-4.02,10.72-4.05,22.73,.08,33.42,3.5,9.05,9.56,16.93,17.09,23.01,17.27,13.96,40.7,18.72,62.35,14.94,19.97-3.48,39.75-15.15,48.84-33.84,4.23-8.7,5.78-18.39,4.37-27.97s-5.84-18.22-12.04-25.42c-14.27-16.57-36.96-24.27-58.42-23.53-3.43,.12-6.84,.47-10.23,.99-1.02,.16-1.59,1.44-1.33,2.35,.3,1.09,1.32,1.49,2.35,1.33h0Z"/>
      <path d="M318.87,83.16c8.23-13.2,22.06-21.94,36.85-26.05,2.36-.66,1.36-4.34-1.02-3.68-15.75,4.38-30.39,13.77-39.14,27.81-1.3,2.09,2,4.01,3.3,1.93h0Z"/>
      <g>
        <path d="M331.84,218.54c.99,9.58,3.99,18.82,8.9,27.12,.98,1.66,3.58,.15,2.59-1.51-4.62-7.82-7.56-16.56-8.49-25.6-.2-1.9-3.2-1.92-3,0h0Z"/>
        <path d="M345.27,251.22c1.93,0,1.93-3,0-3s-1.93,3,0,3h0Z"/>
      </g>
      <path d="M333.43,140.75c4.51,3.63,9.44,6.68,14.75,9.01,.74,.32,1.61,.22,2.05-.54,.37-.64,.21-1.73-.54-2.05-5.06-2.22-9.84-5.07-14.14-8.54-.63-.51-1.51-.62-2.12,0-.53,.53-.63,1.61,0,2.12h0Z"/>
      <path d="M355.72,152.76c1.93,0,1.93-3,0-3s-1.93,3,0,3h0Z"/>
      <ellipse class="cls-5" cx="376.8" cy="308.53" rx="28.07" ry="7.62"/>
      <g>
        <g>
          <path class="cls-5" d="M427.94,235.7h0c-3.75,.22-7.05-2.44-7.63-6.15l-4.25-27.32c-.66-4.24,2.47-8.13,6.76-8.39l5.22-.31c4.29-.26,7.86,3.23,7.71,7.52l-.97,27.64c-.13,3.75-3.1,6.79-6.84,7.01Z"/>
          <path class="cls-10" d="M420.88,228.96l-4.26-27.32c-.65-4.24,2.48-8.13,6.76-8.39l4.42-.27c-2.49,1.46-3.99,4.33-3.52,7.4l4.26,27.32c.4,2.56,2.1,4.63,4.35,5.59-1.18,1.05-2.71,1.72-4.38,1.82-3.76,.22-7.06-2.44-7.64-6.16Z"/>
          <path d="M427.94,233.79c-2.35,.14-4.58-1.18-5.45-3.41-.29-.74-.37-1.55-.49-2.33-.44-2.84-.89-5.69-1.33-8.53-.92-5.88-1.95-11.76-2.75-17.66,0-.05-.02-.09-.02-.14,.07,.56-.02-.54-.02-.52,0-.22,0-.45,.02-.67,.11-1.17,.65-2.28,1.46-3.13,1.3-1.36,2.9-1.63,4.67-1.73,1.45-.09,2.91-.24,4.36-.25,2.38-.02,4.53,1.52,5.23,3.81,.54,1.77,.15,4.05,.08,5.86-.13,3.59-.25,7.18-.38,10.78s-.25,7.24-.38,10.86c-.02,.65-.03,1.3-.07,1.95-.15,2.68-2.24,4.88-4.93,5.11-2.43,.2-2.45,4.02,0,3.82,5.14-.43,8.59-4.37,8.77-9.44,.1-2.96,.21-5.92,.31-8.87,.14-4.11,.29-8.22,.43-12.34,.07-2.13,.28-4.29,.21-6.42-.11-3.1-1.76-5.95-4.4-7.58-1.99-1.23-4.17-1.4-6.44-1.26-1.82,.11-3.75,.07-5.54,.44-2.92,.6-5.38,2.73-6.52,5.46s-.47,5.73-.02,8.62l1.8,11.55,1.64,10.5c.09,.6,.18,1.2,.28,1.8,.51,2.91,2.49,5.49,5.19,6.71,1.33,.6,2.81,.93,4.28,.84,2.44-.15,2.46-3.97,0-3.82Z"/>
        </g>
        <path d="M426.13,194.95c.38,4.87,.76,9.73,1.14,14.6,.06,.81,.64,1.5,1.5,1.5,.76,0,1.56-.69,1.5-1.5-.38-4.87-.76-9.73-1.14-14.6-.06-.81-.64-1.5-1.5-1.5-.76,0-1.56,.69-1.5,1.5h0Z"/>
        <path d="M428.74,216.47c1.93,0,1.93-3,0-3s-1.93,3,0,3h0Z"/>
      </g>
      <path class="cls-5" d="M315.1,242.11h0c-3.68-.73-6.21-4.14-5.83-7.88l2.77-27.51c.43-4.27,4.45-7.25,8.66-6.41l5.13,1.02c4.21,.83,6.79,5.11,5.57,9.23l-7.91,26.5c-1.07,3.6-4.71,5.79-8.39,5.06Z"/>
      <path class="cls-10" d="M309.05,233.64l2.52-27.77c.4-4.31,4.43-7.28,8.69-6.39l4.4,.91c-2.8,.77-4.98,3.17-5.27,6.29l-2.52,27.77c-.23,2.61,.93,5.08,2.9,6.6-1.42,.71-3.08,.96-4.75,.61-3.74-.78-6.33-4.25-5.98-8.03Z"/>
      <path d="M312.84,217.71c.25-2.44,.49-4.87,.74-7.31,.26-2.59,.15-5.51,2.47-7.25,2.56-1.92,5.84-.67,8.65-.12,1.58,.31,2.99,.84,4.01,2.17,1.08,1.42,1.32,3.18,.85,4.86-1.25,4.51-2.68,8.98-4.02,13.46s-2.5,8.7-3.88,13.01c-1.54,4.81-8.51,5.04-10.21,.21-.52-1.46-.23-3.15-.16-4.67,.07-1.37,.14-2.73,.21-4.1,.12-2.46-3.7-2.45-3.82,0-.07,1.37-.14,2.73-.21,4.1-.08,1.68-.28,3.38,.11,5.04,1.29,5.5,7.47,8.47,12.6,6.26,3.16-1.36,4.64-4.1,5.57-7.21l2.55-8.54c1.63-5.48,3.35-10.93,4.9-16.43,1.32-4.66-.99-9.58-5.55-11.33-1.38-.53-2.91-.7-4.35-.99-1.82-.36-3.58-.78-5.45-.49-2.81,.43-5.41,2.26-6.71,4.81-.83,1.63-.99,3.33-1.17,5.11-.32,3.14-.63,6.28-.95,9.41-.1,1.03,.95,1.91,1.91,1.91,1.12,0,1.81-.88,1.91-1.91h0Z"/>
      <path d="M353.14,274.26c6.1,5.97,14.35,8.84,22.7,9.77,.81,.09,1.49-.75,1.5-1.5,0-.88-.7-1.41-1.5-1.5-7.54-.83-15.08-3.51-20.58-8.89-1.38-1.35-3.5,.77-2.12,2.12h0Z"/>
      <path d="M381.15,283.98c1.93,0,1.93-3,0-3s-1.93,3,0,3h0Z"/>
      <path d="M404.87,252c1.93,0,1.93-3,0-3s-1.93,3,0,3h0Z"/>
      <path d="M402.05,263.09c1.93,0,1.93-3,0-3s-1.93,3,0,3h0Z"/>
      <path d="M347.8,630.14c4.82,6.09,12.63,9.57,20.37,9.17,1.92-.1,1.93-3.1,0-3-7.05,.37-13.88-2.76-18.25-8.29-.51-.64-1.59-.52-2.12,0-.63,.62-.5,1.49,0,2.12h0Z"/>
      <path d="M374.94,639.18c1.93,0,1.93-3,0-3s-1.93,3,0,3h0Z"/>
      <path d="M632.43,631.24c4.39,5.22,10.66,8.83,17.39,9.98,.8,.14,1.62-.21,1.85-1.05,.2-.72-.24-1.71-1.05-1.85-6.29-1.08-11.96-4.33-16.06-9.21-.52-.62-1.58-.54-2.12,0-.61,.61-.52,1.5,0,2.12h0Z"/>
      <path d="M654.75,641.44c1.93,0,1.93-3,0-3s-1.93,3,0,3h0Z"/>
      <g>
        <rect x="338.37" y="94.56" width="31.73" height="9.73" rx="4.87" ry="4.87"/>
        <rect x="383.5" y="94.56" width="31.73" height="9.73" rx="4.87" ry="4.87"/>
      </g>
      <path d="M386.16,59.54c3.37-.51,6.73-1.02,10.1-1.53l-1.69-2.2c-1.1,1.66-2.2,3.32-3.3,4.98-.92,1.39-2.45,3.03-2.23,4.82,.12,.94,.78,1.75,1.71,2.01,.87,.24,1.81,.04,2.69-.06,1.97-.21,3.94-.42,5.92-.63,.81-.09,1.5-.63,1.5-1.5,0-.74-.69-1.59-1.5-1.5-1.57,.17-3.14,.34-4.71,.5-.81,.09-1.61,.18-2.42,.26-.12,.01-.69,.06-.69,.04,0,0,.5,.51,.46,.51,.02,0-.17,.23,.06-.16,1.56-2.66,3.39-5.19,5.1-7.76,.33-.49,.24-1.22-.12-1.67-.41-.51-.95-.63-1.58-.54-3.37,.51-6.73,1.02-10.1,1.53-.8,.12-1.24,1.13-1.05,1.85,.24,.86,1.04,1.17,1.85,1.05h0Z"/>
      <path d="M392.96,41.96c3.37-.51,6.73-1.02,10.1-1.53l-1.69-2.2c-1.1,1.66-2.2,3.32-3.3,4.98-.92,1.39-2.45,3.03-2.23,4.82,.12,.94,.78,1.75,1.71,2.01,.87,.24,1.81,.04,2.69-.06,1.97-.21,3.94-.42,5.92-.63,.81-.09,1.5-.63,1.5-1.5,0-.74-.69-1.59-1.5-1.5-1.57,.17-3.14,.34-4.71,.5-.81,.09-1.61,.18-2.42,.26-.12,.01-.69,.06-.69,.04,0,0,.5,.51,.46,.51,.02,0-.17,.23,.06-.16,1.56-2.66,3.39-5.19,5.1-7.76,.33-.49,.24-1.22-.12-1.67-.41-.51-.95-.63-1.58-.54-3.37,.51-6.73,1.02-10.1,1.53-.8,.12-1.24,1.13-1.05,1.85,.24,.86,1.04,1.17,1.85,1.05h0Z"/>
      <path d="M357.42,82.75l10.1-1.53-1.69-2.2c-1.1,1.66-2.2,3.32-3.3,4.98-.92,1.39-2.45,3.03-2.23,4.82,.12,.94,.78,1.75,1.71,2.01,.87,.24,1.81,.04,2.69-.06,1.97-.21,3.94-.42,5.92-.63,.81-.09,1.5-.63,1.5-1.5,0-.74-.69-1.59-1.5-1.5-1.57,.17-3.14,.34-4.71,.5-.81,.09-1.61,.18-2.42,.26-.12,.01-.69,.06-.69,.04,0,0,.5,.51,.46,.51,.02,0-.17,.23,.06-.16,1.56-2.66,3.39-5.19,5.1-7.76,.33-.49,.24-1.22-.12-1.67-.41-.51-.95-.63-1.58-.54l-10.1,1.53c-.8,.12-1.24,1.13-1.05,1.85,.24,.86,1.04,1.17,1.85,1.05h0Z"/>
      <circle class="cls-10" cx="296.86" cy="548.19" r="2.39"/>
      <circle class="cls-2" cx="300.24" cy="553.92" r="1.68"/>
      <g>
        <g>
          <path class="cls-5" d="M9.98,476.89h9.06s0-18.07,0-18.07H9.98c-2.79,0-5.05,2.26-5.05,5.05v7.96c0,2.79,2.26,5.05,5.05,5.05Z"/>
          <path class="cls-10" d="M6.88,465.95c2.44,2.77,6.44,3.81,10.09,3.31,.25-.03,.55-.05,.68,.16,.07,.11,.07,.24,.06,.36-.04,1.47-.08,2.95-.12,4.42,0,.24-.02,.49-.14,.69-.14,.22-.4,.33-.65,.42-2.42,.88-5.11,.72-7.62,.15-.79-.18-1.58-.41-2.25-.86-1.07-.72-1.72-1.96-1.98-3.22-.27-1.27-.2-2.58-.12-3.87"/>
          <path d="M19.04,456.91c-2.59,0-5.19,0-7.78,0-1.52,0-2.96,.05-4.38,.73-2.38,1.15-3.82,3.63-3.87,6.24s0,5.1,0,7.64c.02,4.27,3.22,7.28,7.44,7.28,2.86,0,5.73,0,8.59,0,2.46,0,2.46-3.82,0-3.82s-4.72,0-7.08,0c-.86,0-1.92,.11-2.71-.08-1.48-.37-2.4-1.64-2.43-3.13-.04-2.46,0-4.92,0-7.37,0-1.23,.26-2.31,1.26-3.05,.9-.67,1.83-.62,2.92-.62,2.68,0,5.35,0,8.03,0,2.46,0,2.46-3.82,0-3.82h0Z"/>
        </g>
        <g>
          <path class="cls-5" d="M158.79,476.89h-9.06v-18.07h9.06c2.79,0,5.05,2.26,5.05,5.05v7.96c0,2.79-2.26,5.05-5.05,5.05Z"/>
          <path class="cls-10" d="M161.88,465.95c-2.44,2.77-6.44,3.81-10.09,3.31-.25-.03-.55-.05-.68,.16-.07,.11-.07,.24-.06,.36,.04,1.47,.08,2.95,.12,4.42,0,.24,.02,.49,.14,.69,.14,.22,.4,.33,.65,.42,2.42,.88,5.11,.72,7.62,.15,.79-.18,1.58-.41,2.25-.86,1.07-.72,1.72-1.96,1.98-3.22,.27-1.27,.2-2.58,.12-3.87"/>
          <path d="M149.72,460.73h7.08c.86,0,1.92-.11,2.71,.08,1.48,.37,2.4,1.64,2.43,3.13,.04,2.46,0,4.92,0,7.37s-.26,2.31-1.26,3.05c-.9,.67-1.83,.62-2.92,.62h-8.03c-2.46,0-2.46,3.82,0,3.82h7.78c1.52,0,2.96-.05,4.38-.73,2.38-1.15,3.82-3.63,3.87-6.24s0-5.1,0-7.64c-.02-4.27-3.22-7.28-7.44-7.28h-8.59c-2.46,0-2.46,3.82,0,3.82h0Z"/>
        </g>
        <path class="cls-5" d="M85.29,648.71c-29.89,0-54.12-35.66-54.12-72.25s24.23-48.25,54.12-48.25,54.12,11.66,54.12,48.25-24.23,72.25-54.12,72.25Z"/>
        <path class="cls-10" d="M139.41,575.33c0,36.59-25.03,73.37-54.92,73.37s-53.32-36.78-53.32-73.37c0-1.62,.05-3.19,.14-4.71,2.01,34.83,25.41,67.41,53.98,67.41s51.97-32.58,53.98-67.41c.09,1.52,.14,3.09,.14,4.71Z"/>
        <ellipse class="cls-5" cx="84.89" cy="465.54" rx="66.25" ry="54.12"/>
        <path class="cls-10" d="M151.14,466.05c0,29.89-29.66,54.13-66.25,54.13s-66.25-24.24-66.25-54.13c0-1.85,.11-3.68,.34-5.48,3.39,27.29,31.61,48.59,65.91,48.59s62.52-21.3,65.91-48.59c.23,1.8,.34,3.63,.34,5.48Z"/>
        <ellipse class="cls-8" cx="84.89" cy="465.54" rx="52.66" ry="38.5"/>
        <path class="cls-1" d="M137.95,465.91c0,21.26-23.57,38.5-52.65,38.5s-52.66-17.24-52.66-38.5c0-2.28,.27-4.52,.79-6.7,4.35,18.07,25.92,31.8,51.87,31.8s47.52-13.73,51.86-31.8c.52,2.18,.79,4.42,.79,6.7Z"/>
        <g>
          <path d="M84.51,403.47c-.27-.31-.53-.64-.82-.94-.13-.13-.4-.56-.03,0l-1.3,2.26c-.73-.24-.97-.3-.72-.19,.11,.08,.24,.13,.37,.15,.45,0,.75,.09,1.17-.15,.47-.27,.76-.78,.76-1.32,0-1.2-1.21-2.26-1.67-3.28-.75-1.67,.57-2.59,1.79-3.51,1.39-1.04,2.62-2.14,3.65-3.56,1.99-2.72,2.76-6.12,1.85-9.4s-3.15-6.01-2.89-9.4c.15-1.93-2.86-1.92-3,0-.23,2.98,1.2,5.56,2.3,8.23,1.21,2.93,1.34,5.67-.42,8.41-.79,1.24-1.85,2.24-3.02,3.12-1.06,.79-2.18,1.58-2.87,2.74-.77,1.27-.86,2.75-.32,4.13,.3,.79,.76,1.48,1.21,2.2,.12,.2,.23,.44,.38,.62,.3,.38-.09-.07,.05-.68l.69-.9h-.01c.39-.04,.77-.09,1.16-.14,.79,.16-.24-.06-.45-.07-1.11-.05-1.91,1.33-1.3,2.26,.37,.55,.88,1.04,1.32,1.54,1.27,1.46,3.38-.67,2.12-2.12h0Z"/>
          <circle cx="85.29" cy="374.15" r="7.73"/>
        </g>
        <g>
          <path class="cls-5" d="M180.16,529.72h0c2.01,3.17,1.27,7.35-1.7,9.65l-21.87,16.93c-3.4,2.63-8.32,1.76-10.61-1.86l-2.8-4.42c-2.3-3.63-.97-8.45,2.86-10.39l24.66-12.51c3.35-1.7,7.44-.57,9.45,2.6Z"/>
          <path class="cls-10" d="M177.68,539.16l-21.86,16.93c-3.4,2.62-8.32,1.76-10.61-1.87l-2.37-3.74c2.48,1.47,5.72,1.4,8.18-.5l21.86-16.93c2.05-1.59,3.04-4.08,2.79-6.51,1.49,.53,2.81,1.54,3.71,2.96,2.01,3.18,1.27,7.36-1.7,9.66Z"/>
          <path d="M178.51,530.68c1.31,2.07,1.12,4.83-.6,6.62-.5,.52-1.1,.95-1.67,1.4l-6.93,5.37c-4.65,3.6-9.21,7.37-13.97,10.82-.12,.08-.79,.5-1.3,.7-1.1,.41-2.29,.44-3.42,.11-1.75-.51-2.7-1.79-3.62-3.25-.83-1.31-1.81-2.6-2.49-3.99-.98-2.01-.56-4.5,1.01-6.09,1.34-1.36,3.61-2.15,5.28-3l9.45-4.79,9.7-4.92c.58-.29,1.15-.61,1.74-.88,2.45-1.14,5.34-.34,6.84,1.92,1.36,2.04,4.67,.13,3.3-1.93-2.87-4.31-8.02-5.34-12.52-3.05l-7.81,3.96c-3.67,1.86-7.35,3.73-11.02,5.59-1.93,.98-3.96,1.86-5.82,2.97-2.62,1.57-4.25,4.35-4.47,7.38-.17,2.35,.75,4.39,1.97,6.31,.96,1.52,1.85,3.17,3,4.56,1.86,2.25,4.91,3.51,7.82,3.21,3.11-.32,5.28-2.26,7.63-4.08,3.06-2.37,6.12-4.74,9.18-7.11,2.83-2.19,5.66-4.39,8.5-6.58,.51-.4,1.04-.79,1.54-1.19,2.27-1.83,3.59-4.8,3.37-7.72-.12-1.5-.56-2.98-1.36-4.25-1.31-2.07-4.62-.16-3.3,1.93Z"/>
        </g>
        <g>
          <path class="cls-5" d="M6.88,593.33h0c-3.66-.82-6.1-4.3-5.63-8.02l3.49-27.43c.54-4.26,4.63-7.13,8.82-6.19l5.1,1.15c4.19,.94,6.66,5.29,5.32,9.37l-8.6,26.28c-1.17,3.57-4.86,5.67-8.52,4.84Z"/>
          <path class="cls-10" d="M1.96,584.9l3.49-27.43c.55-4.26,4.64-7.13,8.82-6.18l4.32,.97c-2.79,.71-5.03,3.05-5.43,6.14l-3.49,27.43c-.33,2.57,.74,5.03,2.63,6.58-1.43,.68-3.08,.9-4.72,.53-3.67-.83-6.1-4.31-5.63-8.03Z"/>
          <path d="M8.09,591.09c-2.3-.52-4.07-2.43-4.27-4.8-.07-.79,.07-1.59,.17-2.38l1.06-8.33c.76-5.97,1.38-11.97,2.28-17.92,0-.06,.01-.12,.02-.17-.03,.17-.1,.35,.06-.2,.09-.33,.16-.67,.3-.99,.46-1.08,1.28-1.98,2.3-2.57,1.61-.93,3.23-.71,4.94-.33,1.42,.32,2.86,.58,4.26,.97,2.17,.6,3.78,2.54,3.94,4.8,.14,1.94-.95,4.18-1.54,5.98-1.09,3.34-2.18,6.67-3.27,10.01s-2.28,6.96-3.41,10.44c-.22,.66-.41,1.33-.65,1.98-.92,2.53-3.52,4.04-6.17,3.51-2.4-.48-3.43,3.2-1.02,3.68,5.1,1.02,9.46-1.88,11.04-6.7l2.79-8.52c1.27-3.87,2.53-7.75,3.8-11.62,.68-2.07,1.54-4.16,2.02-6.28,.67-2.98-.15-6.09-2.2-8.35-1.57-1.72-3.62-2.48-5.82-2.97-1.74-.39-3.52-.92-5.3-1.09-3.11-.29-6.19,1.17-8.06,3.63s-1.9,5.34-2.26,8.17c-.49,3.88-.99,7.76-1.48,11.63-.44,3.47-.88,6.95-1.33,10.42-.08,.6-.17,1.2-.23,1.81-.32,2.95,.89,5.99,3.16,7.9,1.11,.94,2.44,1.65,3.87,1.97,2.39,.54,3.42-3.14,1.02-3.68Z"/>
        </g>
        <g>
          <rect class="cls-4" x="46.26" y="438.76" width="2" height="54.35"/>
          <rect class="cls-4" x="57.38" y="433.06" width="2" height="64.19"/>
          <rect class="cls-4" x="71.31" y="428.88" width="2" height="74.06"/>
        </g>
        <g>
          <rect class="cls-4" x="121.87" y="438.76" width="2" height="54.35"/>
          <rect class="cls-4" x="110.75" y="433.06" width="2" height="64.19"/>
          <rect class="cls-4" x="96.82" y="428.88" width="2" height="74.06"/>
        </g>
        <rect class="cls-4" x="84.29" y="428.88" width="2" height="74.06"/>
        <path d="M93.6,429.95c16.68,2.08,36.25,11.44,40.85,29.09,1.92,7.37,.46,15.01-3.55,21.44-4.45,7.15-11.51,12.35-19.07,15.84-17.45,8.06-39.65,7.64-56.66-1.38-7.21-3.82-13.7-9.32-17.53-16.63-3.49-6.66-4.09-14.32-1.67-21.41,2.56-7.49,8.31-13.62,14.84-17.91,7.79-5.12,16.95-8.12,26.18-9.14,2.62-.29,5.25-.42,7.89-.43,2.9,0,2.9-4.51,0-4.5-10.72,.03-21.48,2.27-31.08,7.13-8,4.05-15.33,10.14-19.71,18.07-4.11,7.43-5.27,16.25-2.82,24.42,2.57,8.56,8.58,15.56,15.77,20.67,17.05,12.12,41.03,14.2,60.57,7.56,16.67-5.66,33.33-19.71,32.12-38.92s-20.07-32.7-37.84-36.96c-2.74-.66-5.51-1.12-8.3-1.46-1.21-.15-2.25,1.14-2.25,2.25,0,1.34,1.04,2.1,2.25,2.25h0Z"/>
        <g>
          <g>
            <rect class="cls-13" x="52.29" y="452.84" width="21.1" height="7.34" rx="1.07" ry="1.07" transform="translate(32.3 -3.29) rotate(4.04)"/>
            <path d="M72.12,462.34c-.06,0-.12,0-.19,0l-18.91-1.33c-1.42-.1-2.49-1.33-2.39-2.75l.37-5.18c.1-1.42,1.34-2.5,2.75-2.39l18.91,1.33c.68,.05,1.31,.36,1.76,.88,.45,.52,.67,1.18,.62,1.87l-.37,5.18c-.05,.69-.36,1.31-.88,1.76-.47,.41-1.06,.63-1.68,.63Zm-18.46-4.3l18.06,1.27,.3-4.33-18.06-1.27-.31,4.33Z"/>
          </g>
          <g>
            <rect class="cls-13" x="97.19" y="452.84" width="21.1" height="7.34" rx="1.07" ry="1.07" transform="translate(247.36 904.29) rotate(175.96)"/>
            <path d="M98.46,462.34c-.62,0-1.21-.22-1.68-.63-.52-.45-.83-1.08-.88-1.76l-.37-5.18c-.05-.69,.17-1.35,.62-1.87s1.08-.83,1.76-.88l18.91-1.33c1.4-.12,2.65,.97,2.75,2.38l.37,5.18c.1,1.42-.97,2.65-2.38,2.75l-18.91,1.33c-.06,0-.12,0-.19,0Zm-.02-3h0Zm.12-4.36l.31,4.33,18.06-1.27-.3-4.33-18.06,1.27Z"/>
          </g>
        </g>
        <path class="cls-2" d="M85.29,615.36c-18.61,0-33.7-22.21-33.7-44.99s15.09-30.04,33.7-30.04,33.7,7.26,33.7,30.04-15.09,44.99-33.7,44.99Z"/>
        <path class="cls-5" d="M118.99,570.08c0,22.78-15.09,44.99-33.71,44.99s-33.41-21.79-33.69-44.34c3.27,19.33,16.78,36.08,32.94,36.08,18.6,0,33.69-22.19,33.7-44.96,.5,2.49,.76,5.22,.76,8.23Z"/>
        <path d="M67.05,546.23c7.2-3.38,15.68-3.85,23.5-3.2,5.45,.45,11,1.75,15.68,4.67,11.28,7.04,12.25,21.97,9.76,33.8-2.71,12.89-10.77,27.39-24.15,31.52-6,1.85-12.35,1.01-17.8-2.04-5.92-3.3-10.5-8.62-13.82-14.46-3.69-6.5-5.94-13.89-6.55-21.34s.12-15.21,4.34-21.45c.83-1.22,1.79-2.32,2.85-3.34,1.77-1.71-.93-4.41-2.7-2.7-5.62,5.43-8,13-8.42,20.65-.46,8.48,1.24,17.06,4.57,24.85,5.58,13.04,17.76,26,33.16,24.55,15.44-1.45,26.11-15.64,30.62-29.38,4.3-13.12,4.98-31.15-6.22-41.17-4.56-4.08-10.42-6.35-16.4-7.37-7.92-1.35-16.45-1.25-24.22,.84-2.11,.57-4.16,1.34-6.14,2.26-2.22,1.04-.29,4.34,1.93,3.3h0Z"/>
        <path class="cls-2" d="M46.55,547.79c.22-.32,.44-.63,.67-.93s.02-.12-.05,.06c.05-.14,.26-.33,.36-.45,.46-.56,.95-1.1,1.46-1.62,.54-.55,1.09-1.07,1.67-1.57,.26-.22,.53-.44,.8-.66,.28-.23-.43,.31,.03-.02,.16-.11,.31-.23,.46-.34,1.18-.84,2.43-1.59,3.74-2.23,.31-.15,.62-.29,.94-.44,.68-.31-.38,.14,.02-.01,.18-.07,.35-.14,.53-.21,.72-.27,1.44-.51,2.18-.72,1.51-.43,2.6-2.14,2.1-3.69s-2.07-2.56-3.69-2.1c-6.69,1.93-12.46,6.17-16.4,11.9-.89,1.3-.28,3.39,1.08,4.1,1.53,.81,3.15,.31,4.1-1.08h0Z"/>
        <path class="cls-2" d="M67.04,536.52c3.86,0,3.87-6,0-6s-3.87,6,0,6h0Z"/>
        <path d="M49.94,627.04c-11.99-15.62-18-36.01-16.7-55.64,.35-5.3,1.36-10.54,3.25-15.51,.87-2.3-2.82-3.3-3.68-1.02-3.6,9.5-4.13,20.05-3.12,30.08s3.83,20.45,8.3,29.83c2.39,5.01,5.27,9.78,8.65,14.18,.63,.82,1.64,1.24,2.61,.69,.81-.46,1.31-1.8,.69-2.61h0Z"/>
        <path d="M110.74,533.93c9.45,3.37,17.4,9.64,21.92,18.7,5.64,11.29,5.77,25.1,3.75,37.31-2.13,12.85-7.06,25.32-14.81,35.83-6.71,9.11-16,16.9-27.11,19.83-12.94,3.41-26.13-1.02-36.06-9.59-1.37-1.18-2.67-2.43-3.93-3.72-1.72-1.76-4.42,.94-2.7,2.7,10.12,10.39,23.98,17.24,38.74,15.27,12.16-1.63,22.8-8.82,30.7-17.96,8.98-10.39,14.99-23.29,17.95-36.65,2.93-13.23,3.5-28.15-1.48-40.97-4.03-10.35-11.81-18.38-21.98-22.85-1.3-.57-2.63-1.1-3.97-1.58-2.32-.83-3.32,2.86-1.02,3.68h0Z"/>
        <path d="M38.98,550.65c9.32-16.12,28.56-20.47,45.91-20.53,6.59-.02,13.18,.51,19.61,1.99,2.39,.55,3.41-3.13,1.02-3.68-11.11-2.56-22.91-2.77-34.18-1.17-9.2,1.31-18.34,4.31-25.75,10.07-4.01,3.12-7.35,6.99-9.9,11.39-1.23,2.13,2.07,4.06,3.3,1.93h0Z"/>
        <path class="cls-2" d="M36.98,437.26c1.81-2.07,3.79-3.99,5.92-5.72,.12-.09,.23-.19,.35-.28,.07-.05,.57-.45,.22-.18-.32,.25,.08-.06,.14-.1,.15-.11,.3-.22,.45-.33,.54-.4,1.09-.78,1.64-1.15,1.17-.79,2.38-1.52,3.61-2.2,1.38-.76,1.94-2.77,1.08-4.1s-2.63-1.89-4.1-1.08c-5.09,2.81-9.72,6.52-13.55,10.9-1.03,1.18-1.25,3.1,0,4.24,1.13,1.04,3.14,1.26,4.24,0h0Z"/>
        <path class="cls-2" d="M55.94,423.83c3.86,0,3.87-6,0-6s-3.87,6,0,6h0Z"/>
        <path d="M72.82,414.23c20.99-3.23,44.09,2.01,60.03,16.51,6.61,6.02,11.87,13.58,14.49,22.18s2.48,17.86-.37,26.4c-6.06,18.12-23.05,30.47-40.88,35.53-20.2,5.72-43.08,3.1-60.9-8.23-7.74-4.93-14.47-11.57-18.96-19.62-4.66-8.35-6.66-18.13-5.25-27.62,.48-3.23,1.34-6.38,2.48-9.43,.86-2.3-2.83-3.3-3.68-1.02-4.02,10.72-4.05,22.73,.08,33.42,3.5,9.05,9.56,16.93,17.09,23.01,17.27,13.96,40.7,18.72,62.35,14.94,19.97-3.48,39.75-15.15,48.84-33.84,4.23-8.7,5.78-18.39,4.37-27.97-1.39-9.45-5.84-18.22-12.04-25.42-14.27-16.57-36.96-24.27-58.42-23.53-3.43,.12-6.84,.47-10.23,.99-1.02,.16-1.59,1.44-1.33,2.35,.3,1.09,1.32,1.49,2.35,1.33h0Z"/>
        <path d="M27.37,442.14c8.23-13.2,22.06-21.94,36.85-26.05,2.36-.66,1.36-4.34-1.02-3.68-15.75,4.38-30.39,13.77-39.14,27.81-1.3,2.09,2,4.01,3.3,1.93h0Z"/>
        <path d="M145.39,550.98c4.08-2.69,8.15-5.37,12.23-8.06,.68-.45,.96-1.33,.54-2.05-.39-.67-1.37-.99-2.05-.54-4.08,2.69-8.15,5.37-12.23,8.06-.68,.45-.96,1.33-.54,2.05,.39,.67,1.37,.99,2.05,.54h0Z"/>
        <path d="M161.63,540.54c1.93,0,1.93-3,0-3s-1.93,3,0,3h0Z"/>
        <g>
          <path d="M40.34,577.52c.99,9.58,3.99,18.82,8.9,27.12,.98,1.66,3.58,.15,2.59-1.51-4.62-7.82-7.56-16.56-8.49-25.6-.2-1.9-3.2-1.92-3,0h0Z"/>
          <path d="M53.76,610.2c1.93,0,1.93-3,0-3s-1.93,3,0,3h0Z"/>
        </g>
        <path d="M41.93,499.72c4.51,3.63,9.44,6.68,14.75,9.01,.74,.32,1.61,.22,2.05-.54,.37-.64,.21-1.73-.54-2.05-5.06-2.22-9.84-5.07-14.14-8.54-.63-.51-1.51-.62-2.12,0-.53,.53-.63,1.61,0,2.12h0Z"/>
        <path d="M64.22,511.74c1.93,0,1.93-3,0-3s-1.93,3,0,3h0Z"/>
        <ellipse class="cls-5" cx="85.29" cy="667.51" rx="28.07" ry="7.62"/>
        <path d="M111.09,631.61c3.09-2.44,5.89-5.23,8.33-8.33,.48-.61,.64-1.53,0-2.12-.54-.5-1.6-.66-2.12,0-2.44,3.09-5.24,5.89-8.33,8.33-.62,.49-.55,1.62,0,2.12,.66,.6,1.46,.52,2.12,0h0Z"/>
        <path d="M121.11,618.29c1.93,0,1.93-3,0-3s-1.93,3,0,3h0Z"/>
        <circle class="cls-5" cx="89.39" cy="602.02" r="6.69"/>
        <circle class="cls-5" cx="97.48" cy="592.1" r="1.41"/>
        <circle class="cls-5" cx="102.53" cy="594.42" r=".91"/>
        <circle class="cls-5" cx="99.79" cy="597.36" r=".9"/>
        <circle class="cls-5" cx="79.12" cy="602.95" r=".93"/>
      </g>
      <g>
        <path class="cls-5" d="M581.94,123.23h9.06s0-18.07,0-18.07h-9.06c-2.79,0-5.05,2.26-5.05,5.05v7.96c0,2.79,2.26,5.05,5.05,5.05Z"/>
        <path class="cls-10" d="M578.84,112.28c2.44,2.77,6.44,3.81,10.09,3.31,.25-.03,.55-.05,.68,.16,.07,.11,.07,.24,.06,.36-.04,1.47-.08,2.95-.12,4.42,0,.24-.02,.49-.14,.69-.14,.22-.4,.33-.65,.42-2.42,.88-5.11,.72-7.62,.15-.79-.18-1.58-.41-2.25-.86-1.07-.72-1.72-1.96-1.98-3.22s-.2-2.58-.12-3.87"/>
        <path d="M591,103.25c-2.59,0-5.19,0-7.78,0-1.52,0-2.96,.05-4.38,.73-2.38,1.15-3.82,3.63-3.87,6.24s0,5.1,0,7.64c.02,4.27,3.22,7.28,7.44,7.28,2.86,0,5.73,0,8.59,0,2.46,0,2.46-3.82,0-3.82s-4.72,0-7.08,0c-.86,0-1.92,.11-2.71-.08-1.48-.37-2.4-1.64-2.43-3.13-.04-2.46,0-4.92,0-7.37,0-1.23,.26-2.31,1.26-3.05,.9-.67,1.83-.62,2.92-.62,2.68,0,5.35,0,8.03,0,2.46,0,2.46-3.82,0-3.82h0Z"/>
      </g>
      <g>
        <path class="cls-5" d="M730.75,123.23h-9.06v-18.07h9.06c2.79,0,5.05,2.26,5.05,5.05v7.96c0,2.79-2.26,5.05-5.05,5.05Z"/>
        <path class="cls-10" d="M733.84,112.28c-2.44,2.77-6.44,3.81-10.09,3.31-.25-.03-.55-.05-.68,.16-.07,.11-.07,.24-.06,.36,.04,1.47,.08,2.95,.12,4.42,0,.24,.02,.49,.14,.69,.14,.22,.4,.33,.65,.42,2.42,.88,5.11,.72,7.62,.15,.79-.18,1.58-.41,2.25-.86,1.07-.72,1.72-1.96,1.98-3.22,.27-1.27,.2-2.58,.12-3.87"/>
        <path d="M721.68,107.07h7.08c.86,0,1.92-.11,2.71,.08,1.48,.37,2.4,1.64,2.43,3.13,.04,2.46,0,4.92,0,7.37,0,1.23-.26,2.31-1.26,3.05-.9,.67-1.83,.62-2.92,.62h-8.03c-2.46,0-2.46,3.82,0,3.82h7.78c1.52,0,2.96-.05,4.38-.73,2.38-1.15,3.82-3.63,3.87-6.24s0-5.1,0-7.64c-.02-4.27-3.22-7.28-7.44-7.28h-8.59c-2.46,0-2.46,3.82,0,3.82h0Z"/>
      </g>
      <path class="cls-5" d="M657.25,295.04c-29.89,0-54.12-35.66-54.12-72.25s24.23-48.25,54.12-48.25,54.12,11.66,54.12,48.25-24.23,72.25-54.12,72.25Z"/>
      <path class="cls-10" d="M711.37,221.66c0,36.59-25.03,73.37-54.92,73.37s-53.32-36.78-53.32-73.37c0-1.62,.05-3.19,.14-4.71,2.01,34.83,25.41,67.41,53.98,67.41s51.97-32.58,53.98-67.41c.09,1.52,.14,3.09,.14,4.71Z"/>
      <ellipse class="cls-5" cx="656.85" cy="111.87" rx="66.25" ry="54.12"/>
      <path class="cls-10" d="M723.1,112.38c0,29.89-29.66,54.13-66.25,54.13s-66.25-24.24-66.25-54.13c0-1.85,.11-3.68,.34-5.48,3.39,27.29,31.61,48.59,65.91,48.59s62.52-21.3,65.91-48.59c.23,1.8,.34,3.63,.34,5.48Z"/>
      <ellipse class="cls-8" cx="656.85" cy="111.87" rx="52.66" ry="38.5"/>
      <path class="cls-1" d="M709.91,112.24c0,21.26-23.57,38.5-52.65,38.5s-52.66-17.24-52.66-38.5c0-2.28,.27-4.52,.79-6.7,4.35,18.07,25.92,31.8,51.87,31.8s47.52-13.73,51.86-31.8c.52,2.18,.79,4.42,.79,6.7Z"/>
      <g>
        <path d="M656.48,49.81c-.27-.31-.53-.64-.82-.94-.13-.13-.4-.56-.03,0l-1.3,2.26c-.73-.24-.97-.3-.72-.19,.11,.08,.24,.13,.37,.15,.45,0,.75,.09,1.17-.15,.47-.27,.76-.78,.76-1.32,0-1.2-1.21-2.26-1.67-3.28-.75-1.67,.57-2.59,1.79-3.51,1.39-1.04,2.62-2.14,3.65-3.56,1.99-2.72,2.76-6.12,1.85-9.4s-3.15-6.01-2.89-9.4c.15-1.93-2.86-1.92-3,0-.23,2.98,1.2,5.56,2.3,8.23,1.21,2.93,1.34,5.67-.42,8.41-.79,1.24-1.85,2.24-3.02,3.12-1.06,.79-2.18,1.58-2.87,2.74-.77,1.27-.86,2.75-.32,4.13,.3,.79,.76,1.48,1.21,2.2,.12,.2,.23,.44,.38,.62,.3,.38-.09-.07,.05-.68l.69-.9h-.01c.39-.04,.77-.09,1.16-.14,.79,.16-.24-.06-.45-.07-1.11-.05-1.91,1.33-1.3,2.26,.37,.55,.88,1.04,1.32,1.54,1.27,1.46,3.38-.67,2.12-2.12h0Z"/>
        <circle cx="657.25" cy="20.48" r="7.73"/>
      </g>
      <g>
        <path class="cls-5" d="M578.84,239.66h0c-3.66-.82-6.1-4.3-5.63-8.02l3.49-27.43c.54-4.26,4.63-7.13,8.82-6.19l5.1,1.15c4.19,.94,6.66,5.29,5.32,9.37l-8.6,26.28c-1.17,3.57-4.86,5.67-8.52,4.84Z"/>
        <path class="cls-10" d="M573.92,231.23l3.49-27.43c.55-4.26,4.64-7.13,8.82-6.18l4.32,.97c-2.79,.71-5.03,3.05-5.43,6.14l-3.49,27.43c-.33,2.57,.74,5.03,2.63,6.58-1.43,.68-3.08,.9-4.72,.53-3.67-.83-6.1-4.31-5.63-8.03Z"/>
        <path d="M580.05,237.42c-2.3-.52-4.07-2.43-4.27-4.8-.07-.79,.07-1.59,.17-2.38,.35-2.78,.71-5.55,1.06-8.33,.76-5.97,1.38-11.97,2.28-17.92,0-.06,.01-.12,.02-.17-.03,.17-.1,.35,.06-.2,.09-.33,.16-.67,.3-.99,.46-1.08,1.28-1.98,2.3-2.57,1.61-.93,3.23-.71,4.94-.33,1.42,.32,2.86,.58,4.26,.97,2.17,.6,3.78,2.54,3.94,4.8,.14,1.94-.95,4.18-1.54,5.98-1.09,3.34-2.18,6.67-3.27,10.01-1.14,3.48-2.28,6.96-3.41,10.44-.22,.66-.41,1.33-.65,1.98-.92,2.53-3.52,4.04-6.17,3.51-2.4-.48-3.43,3.2-1.02,3.68,5.1,1.02,9.46-1.88,11.04-6.7l2.79-8.52c1.27-3.87,2.53-7.75,3.8-11.62,.68-2.07,1.54-4.16,2.02-6.28,.67-2.98-.15-6.09-2.2-8.35-1.57-1.72-3.62-2.48-5.82-2.97-1.74-.39-3.52-.92-5.3-1.09-3.11-.29-6.19,1.17-8.06,3.63s-1.9,5.34-2.26,8.17c-.49,3.88-.99,7.76-1.48,11.63-.44,3.47-.88,6.95-1.33,10.42-.08,.6-.17,1.2-.23,1.81-.32,2.95,.89,5.99,3.16,7.9,1.11,.94,2.44,1.65,3.87,1.97,2.39,.54,3.42-3.14,1.02-3.68Z"/>
      </g>
      <g>
        <rect class="cls-4" x="618.22" y="85.09" width="2" height="54.35"/>
        <rect class="cls-4" x="629.34" y="79.4" width="2" height="64.19"/>
        <rect class="cls-4" x="643.27" y="75.21" width="2" height="74.06"/>
      </g>
      <g>
        <rect class="cls-4" x="693.83" y="85.09" width="2" height="54.35"/>
        <rect class="cls-4" x="682.71" y="79.4" width="2" height="64.19"/>
        <rect class="cls-4" x="668.78" y="75.21" width="2" height="74.06"/>
      </g>
      <rect class="cls-4" x="656.25" y="75.21" width="2" height="74.06"/>
      <path d="M665.56,76.28c16.68,2.08,36.25,11.44,40.85,29.09,1.92,7.37,.46,15.01-3.55,21.44-4.45,7.15-11.51,12.35-19.07,15.84-17.45,8.06-39.65,7.64-56.66-1.38-7.21-3.82-13.7-9.32-17.53-16.63-3.49-6.66-4.09-14.32-1.67-21.41,2.56-7.49,8.31-13.62,14.84-17.91,7.79-5.12,16.95-8.12,26.18-9.14,2.62-.29,5.25-.42,7.89-.43,2.9,0,2.9-4.51,0-4.5-10.72,.03-21.48,2.27-31.08,7.13-8,4.05-15.33,10.14-19.71,18.07-4.11,7.43-5.27,16.25-2.82,24.42,2.57,8.56,8.58,15.56,15.77,20.67,17.05,12.12,41.03,14.2,60.57,7.56,16.67-5.66,33.33-19.71,32.12-38.92-1.25-19.83-20.07-32.7-37.84-36.96-2.74-.66-5.51-1.12-8.3-1.46-1.21-.15-2.25,1.14-2.25,2.25,0,1.34,1.04,2.1,2.25,2.25h0Z"/>
      <path class="cls-2" d="M657.25,261.69c-18.61,0-33.7-22.21-33.7-44.99s15.09-30.04,33.7-30.04,33.7,7.26,33.7,30.04-15.09,44.99-33.7,44.99Z"/>
      <path class="cls-5" d="M690.95,216.41c0,22.78-15.09,44.99-33.71,44.99s-33.41-21.79-33.69-44.34c3.27,19.33,16.78,36.08,32.94,36.08,18.6,0,33.69-22.19,33.7-44.96,.5,2.49,.76,5.22,.76,8.23Z"/>
      <path d="M639.01,192.56c7.2-3.38,15.68-3.85,23.5-3.2,5.45,.45,11,1.75,15.68,4.67,11.28,7.04,12.25,21.97,9.76,33.8-2.71,12.89-10.77,27.39-24.15,31.52-6,1.85-12.35,1.01-17.8-2.04-5.92-3.3-10.5-8.62-13.82-14.46-3.69-6.5-5.94-13.89-6.55-21.34s.12-15.21,4.34-21.45c.83-1.22,1.79-2.32,2.85-3.34,1.77-1.71-.93-4.41-2.7-2.7-5.62,5.43-8,13-8.42,20.65-.46,8.48,1.24,17.06,4.57,24.85,5.58,13.04,17.76,26,33.16,24.55s26.11-15.64,30.62-29.38c4.3-13.12,4.98-31.15-6.22-41.17-4.56-4.08-10.42-6.35-16.4-7.37-7.92-1.35-16.45-1.25-24.22,.84-2.11,.57-4.16,1.34-6.14,2.26-2.22,1.04-.29,4.34,1.93,3.3h0Z"/>
      <path class="cls-2" d="M618.51,194.12c.22-.32,.44-.63,.67-.93s.02-.12-.05,.06c.05-.14,.26-.33,.36-.45,.46-.56,.95-1.1,1.46-1.62,.54-.55,1.09-1.07,1.67-1.57,.26-.22,.53-.44,.8-.66,.28-.23-.43,.31,.03-.02,.16-.11,.31-.23,.46-.34,1.18-.84,2.43-1.59,3.74-2.23,.31-.15,.62-.29,.94-.44,.68-.31-.38,.14,.02-.01,.18-.07,.35-.14,.53-.21,.72-.27,1.44-.51,2.18-.72,1.51-.43,2.6-2.14,2.1-3.69s-2.07-2.56-3.69-2.1c-6.69,1.93-12.46,6.17-16.4,11.9-.89,1.3-.28,3.39,1.08,4.1,1.53,.81,3.15,.31,4.1-1.08h0Z"/>
      <path class="cls-2" d="M639,182.85c3.86,0,3.87-6,0-6s-3.87,6,0,6h0Z"/>
      <path d="M621.9,273.37c-11.99-15.62-18-36.01-16.7-55.64,.35-5.3,1.36-10.54,3.25-15.51,.87-2.3-2.82-3.3-3.68-1.02-3.6,9.5-4.13,20.05-3.12,30.08,1.04,10.34,3.83,20.45,8.3,29.83,2.39,5.01,5.27,9.78,8.65,14.18,.63,.82,1.64,1.24,2.61,.69,.81-.46,1.31-1.8,.69-2.61h0Z"/>
      <path d="M682.7,180.26c9.45,3.37,17.4,9.64,21.92,18.7,5.64,11.29,5.77,25.1,3.75,37.31-2.13,12.85-7.06,25.32-14.81,35.83-6.71,9.11-16,16.9-27.11,19.83-12.94,3.41-26.13-1.02-36.06-9.59-1.37-1.18-2.67-2.43-3.93-3.72-1.72-1.76-4.42,.94-2.7,2.7,10.12,10.39,23.98,17.24,38.74,15.27,12.16-1.63,22.8-8.82,30.7-17.96,8.98-10.39,14.99-23.29,17.95-36.65,2.93-13.23,3.5-28.15-1.48-40.97-4.03-10.35-11.81-18.38-21.98-22.85-1.3-.57-2.63-1.1-3.97-1.58-2.32-.83-3.32,2.86-1.02,3.68h0Z"/>
      <path d="M610.94,196.98c9.32-16.12,28.56-20.47,45.91-20.53,6.59-.02,13.18,.51,19.61,1.99,2.39,.55,3.41-3.13,1.02-3.68-11.11-2.56-22.91-2.77-34.18-1.17-9.2,1.31-18.34,4.31-25.75,10.07-4.01,3.12-7.35,6.99-9.9,11.39-1.23,2.13,2.07,4.06,3.3,1.93h0Z"/>
      <path class="cls-2" d="M608.94,83.59c1.81-2.07,3.79-3.99,5.92-5.72,.12-.09,.23-.19,.35-.28,.07-.05,.57-.45,.22-.18-.32,.25,.08-.06,.14-.1,.15-.11,.3-.22,.45-.33,.54-.4,1.09-.78,1.64-1.15,1.17-.79,2.38-1.52,3.61-2.2,1.38-.76,1.94-2.77,1.08-4.1s-2.63-1.89-4.1-1.08c-5.09,2.81-9.72,6.52-13.55,10.9-1.03,1.18-1.25,3.1,0,4.24,1.13,1.04,3.14,1.26,4.24,0h0Z"/>
      <path class="cls-2" d="M627.9,70.16c3.86,0,3.87-6,0-6s-3.87,6,0,6h0Z"/>
      <path d="M644.78,60.57c20.99-3.23,44.09,2.01,60.03,16.51,6.61,6.02,11.87,13.58,14.49,22.18s2.48,17.86-.37,26.4c-6.06,18.12-23.05,30.47-40.88,35.53-20.2,5.72-43.08,3.1-60.9-8.23-7.74-4.93-14.47-11.57-18.96-19.62s-6.66-18.13-5.25-27.62c.48-3.23,1.34-6.38,2.48-9.43,.86-2.3-2.83-3.3-3.68-1.02-4.02,10.72-4.05,22.73,.08,33.42,3.5,9.05,9.56,16.93,17.09,23.01,17.27,13.96,40.7,18.72,62.35,14.94,19.97-3.48,39.75-15.15,48.84-33.84,4.23-8.7,5.78-18.39,4.37-27.97-1.39-9.45-5.84-18.22-12.04-25.42-14.27-16.57-36.96-24.27-58.42-23.53-3.43,.12-6.84,.47-10.23,.99-1.02,.16-1.59,1.44-1.33,2.35,.3,1.09,1.32,1.49,2.35,1.33h0Z"/>
      <path d="M599.33,88.47c8.23-13.2,22.06-21.94,36.85-26.05,2.36-.66,1.36-4.34-1.02-3.68-15.75,4.38-30.39,13.77-39.14,27.81-1.3,2.09,2,4.01,3.3,1.93h0Z"/>
      <g>
        <g>
          <path class="cls-5" d="M743.13,230.16h0c-3.31,1.78-7.42,.75-9.51-2.37l-15.35-23c-2.38-3.57-1.17-8.42,2.61-10.46l4.61-2.48c3.78-2.03,8.49-.37,10.16,3.59l10.74,25.48c1.46,3.46,.05,7.46-3.26,9.24Z"/>
          <path class="cls-10" d="M733.88,227.02l-15.35-23c-2.37-3.58-1.17-8.42,2.61-10.45l3.9-2.1c-1.64,2.37-1.8,5.61-.08,8.2l15.35,23c1.44,2.16,3.86,3.32,6.3,3.24-.63,1.45-1.73,2.69-3.21,3.49-3.31,1.78-7.43,.75-9.52-2.38Z"/>
          <path d="M742.17,228.51c-2.07,1.11-4.69,.66-6.32-1-.47-.48-.82-1.05-1.19-1.61-1.62-2.43-3.24-4.86-4.87-7.3-3.27-4.9-6.62-9.75-9.81-14.7-.98-1.53-1.34-3.29-.69-5.03s2.06-2.63,3.62-3.47c1.27-.68,2.53-1.48,3.85-2.06,2.16-.95,4.77-.35,6.29,1.45,.7,.83,.71,1.04,1.11,1.98l1.29,3.06c1.4,3.33,2.81,6.66,4.21,10s2.78,6.61,4.18,9.91c.24,.56,.48,1.12,.71,1.68,1.09,2.74,.22,5.6-2.38,7.08-2.14,1.22-.21,4.52,1.93,3.3,4.28-2.44,5.79-7.49,3.91-11.95-1.17-2.78-2.34-5.55-3.51-8.33-1.59-3.78-3.19-7.56-4.78-11.35-.86-2.05-1.62-4.19-2.63-6.18-1.4-2.76-4.23-4.57-7.27-4.88-2.33-.24-4.35,.57-6.35,1.65-1.56,.84-3.26,1.58-4.67,2.66-2.38,1.82-3.81,4.76-3.63,7.77s1.92,5.22,3.52,7.61c2.18,3.26,4.35,6.52,6.53,9.79,1.94,2.92,3.89,5.83,5.83,8.75,.35,.52,.68,1.04,1.04,1.55,1.79,2.52,4.67,4.13,7.81,4.04,1.47-.04,2.92-.43,4.21-1.13,2.17-1.17,.24-4.46-1.93-3.3Z"/>
        </g>
        <path d="M724.42,194.07c2.39,4.26,4.78,8.51,7.17,12.77,.95,1.68,3.54,.17,2.59-1.51-2.39-4.26-4.78-8.51-7.17-12.77-.95-1.68-3.54-.17-2.59,1.51h0Z"/>
        <path d="M735.13,212.52c1.93,0,1.93-3,0-3s-1.93,3,0,3h0Z"/>
      </g>
      <g>
        <path d="M612.3,223.85c.99,9.58,3.99,18.82,8.9,27.12,.98,1.66,3.58,.15,2.59-1.51-4.62-7.82-7.56-16.56-8.49-25.6-.2-1.9-3.2-1.92-3,0h0Z"/>
        <path d="M625.72,256.53c1.93,0,1.93-3,0-3s-1.93,3,0,3h0Z"/>
      </g>
      <path d="M636.18,158.07c1.93,0,1.93-3,0-3s-1.93,3,0,3h0Z"/>
      <ellipse class="cls-5" cx="657.25" cy="313.84" rx="28.07" ry="7.62"/>
      <path d="M683.05,277.94c3.09-2.44,5.89-5.23,8.33-8.33,.48-.61,.64-1.53,0-2.12-.54-.5-1.6-.66-2.12,0-2.44,3.09-5.24,5.89-8.33,8.33-.62,.49-.55,1.62,0,2.12,.66,.6,1.46,.52,2.12,0h0Z"/>
      <path d="M693.07,264.62c1.93,0,1.93-3,0-3s-1.93,3,0,3h0Z"/>
      <circle class="cls-5" cx="661.35" cy="248.35" r="6.69"/>
      <circle class="cls-5" cx="669.44" cy="238.44" r="1.41"/>
      <circle class="cls-5" cx="674.5" cy="240.75" r=".91"/>
      <circle class="cls-5" cx="671.75" cy="243.69" r=".9"/>
      <circle class="cls-5" cx="651.08" cy="249.28" r=".93"/>
      <path class="cls-11" d="M634.8,159.63h0c-3.69,0-6.69-2.99-6.69-6.69v-46.66h13.37v46.66c0,3.69-2.99,6.69-6.69,6.69Z"/>
      <path d="M634.8,158.75c-2.89,0-5.13-2.37-5.19-5.2-.01-.59,0-1.18,0-1.78v-44.87l-1.5,1.5h13.37l-1.5-1.5v43.89c0,.89,.01,1.77,0,2.66-.04,2.93-2.24,5.22-5.19,5.3-1.93,.05-1.93,3.05,0,3,3.58-.09,6.76-2.34,7.83-5.8,.34-1.1,.35-2.22,.35-3.36v-45.69c0-.81-.69-1.5-1.5-1.5h-13.37c-.81,0-1.5,.69-1.5,1.5v45.07c0,.94-.03,1.88,.1,2.81,.58,3.95,4.09,6.97,8.08,6.97,1.93,0,1.93-3,0-3Z"/>
      <g>
        <rect class="cls-13" x="624.25" y="102.17" width="21.1" height="7.34" rx="1.07" ry="1.07" transform="translate(-7.83 140.39) rotate(-12.54)"/>
        <path d="M626.12,113c-1.18,0-2.25-.82-2.51-2.01l-1.13-5.07c-.15-.67-.03-1.36,.34-1.94,.37-.58,.94-.98,1.61-1.13l18.5-4.12c1.39-.31,2.76,.57,3.07,1.95l1.13,5.07c.15,.67,.03,1.36-.34,1.94-.37,.58-.94,.98-1.61,1.13l-18.5,4.12c-.19,.04-.37,.06-.56,.06Zm-.62-7.32l.94,4.24,17.67-3.93-.94-4.24-17.67,3.93Zm19.03,.21h0s0,0,0,0Z"/>
      </g>
      <path class="cls-11" d="M675.05,140.58h0c-3.69,0-6.69-2.99-6.69-6.69v-26.66h13.37v26.66c0,3.69-2.99,6.69-6.69,6.69Z"/>
      <path d="M675.05,139.69c-3.06,0-5.17-2.53-5.19-5.46-.01-1.69,0-3.38,0-5.07v-21.31l-1.5,1.5h13.37l-1.5-1.5c0,8.67,0,17.33,0,26,0,3.11-1.86,5.76-5.19,5.85-1.93,.05-1.93,3.05,0,3,4.53-.11,8.09-3.65,8.19-8.19,.03-1.32,0-2.65,0-3.98v-22.68c0-.81-.69-1.5-1.5-1.5h-13.37c-.81,0-1.5,.69-1.5,1.5,0,8.86-.16,17.73,0,26.58,.08,4.48,3.61,8.26,8.19,8.26,1.93,0,1.93-3,0-3Z"/>
      <g>
        <rect class="cls-13" x="665.5" y="102.11" width="21.1" height="7.34" rx="1.07" ry="1.07" transform="translate(26.53 -109.51) rotate(9.45)"/>
        <path d="M684.97,112.47c-.14,0-.28-.01-.42-.04l-18.7-3.11c-.68-.11-1.27-.48-1.67-1.04-.4-.56-.56-1.24-.44-1.92l.85-5.12c.11-.68,.48-1.27,1.04-1.67,.56-.4,1.24-.56,1.92-.45l18.7,3.11c1.4,.23,2.35,1.56,2.12,2.96l-.85,5.12c-.21,1.26-1.3,2.15-2.54,2.15Zm-18.21-6.04l17.86,2.97,.71-4.28-17.86-2.97-.71,4.28Z"/>
      </g>
      <path d="M625.74,100.97c4.79-1.45,9.58-2.89,14.37-4.34,1.13-.34,1.95-1.59,1.57-2.77s-1.56-1.94-2.77-1.57c-4.79,1.45-9.58,2.89-14.37,4.34-1.13,.34-1.95,1.59-1.57,2.77s1.56,1.94,2.77,1.57h0Z"/>
      <path d="M670,96.95c4.68,.41,9.45,1.4,14.04,2.89,1.12,.36,2.51-.42,2.77-1.57,.28-1.23-.37-2.38-1.57-2.77-4.95-1.6-10.06-2.59-15.24-3.05-1.18-.1-2.3,1.11-2.25,2.25,.06,1.31,.99,2.14,2.25,2.25h0Z"/>
      <g>
        <path d="M631.89,116.84c0,1.69,0,3.39,0,5.08,0,.59,.52,1.15,1.12,1.12s1.12-.49,1.12-1.12c0-1.69,0-3.39,0-5.08,0-.59-.52-1.15-1.12-1.12s-1.12,.49-1.12,1.12h0Z"/>
        <path d="M635.09,131.71c0,1.19,0,2.38,0,3.58,0,.59,.52,1.15,1.12,1.12s1.12-.49,1.12-1.12c0-1.19,0-2.38,0-3.58,0-.59-.52-1.15-1.12-1.12s-1.12,.49-1.12,1.12h0Z"/>
        <path d="M632.26,146.39v4.71c0,.59,.52,1.15,1.12,1.12s1.12-.49,1.12-1.12v-4.71c0-.59-.52-1.15-1.12-1.12s-1.12,.49-1.12,1.12h0Z"/>
      </g>
      <g>
        <path d="M672.32,115.29c0,1.69,0,3.39,0,5.08,0,.59,.52,1.15,1.12,1.12s1.12-.49,1.12-1.12c0-1.69,0-3.39,0-5.08,0-.59-.52-1.15-1.12-1.12s-1.12,.49-1.12,1.12h0Z"/>
        <path d="M675.52,130.16c0,1.19,0,2.38,0,3.58,0,.59,.52,1.15,1.12,1.12s1.12-.49,1.12-1.12c0-1.19,0-2.38,0-3.58,0-.59-.52-1.15-1.12-1.12s-1.12,.49-1.12,1.12h0Z"/>
      </g>
      <path d="M635.87,445.58c1.52,.97,3.01,1.97,4.47,3.02,.73,.52,1.46,1.06,2.17,1.6,.18,.14,.36,.27,.54,.41-.47-.38,.12,.1,.21,.17,.35,.28,.71,.56,1.06,.84,.48,.39,.95,.66,1.59,.66,.55,0,1.21-.25,1.59-.66,.75-.82,.98-2.39,0-3.18-3-2.41-6.12-4.67-9.36-6.74-.99-.63-2.53-.24-3.08,.81-.59,1.11-.25,2.4,.81,3.08h0Z"/>
      <path d="M668.82,451.76c3.51-2.09,7.12-4.03,10.8-5.8,1.06-.51,1.43-2.11,.81-3.08-.7-1.09-1.94-1.35-3.08-.81-3.69,1.77-7.29,3.71-10.8,5.8-1.01,.6-1.47,2.05-.81,3.08s2,1.45,3.08,.81h0Z"/>
      <path d="M390.75,445.09c.35,0,.69,.03,1.04,.06,.14,.01,.28,.03,.41,.04-.33-.03-.06,0,.12,.02,.62,.1,1.22,.23,1.82,.4,.63,.18,1.26,.39,1.87,.65-.3-.13-.01,0,.13,.07,.13,.06,.25,.12,.38,.18,.31,.15,.62,.32,.92,.49,.54,.31,1.07,.65,1.57,1.02,.12,.09,.37,.29,.12,.09,.11,.09,.22,.17,.32,.26,.27,.22,.52,.45,.78,.69,.45,.43,.88,.88,1.28,1.36,0-.01,.36,.45,.21,.26s.21,.28,.2,.27c.2,.28,.39,.57,.57,.87,.62,1,2.04,1.48,3.08,.81s1.47-2.01,.81-3.08c-3.36-5.37-9.31-8.77-15.63-8.95-1.18-.03-2.3,1.06-2.25,2.25s.99,2.21,2.25,2.25h0Z"/>
      <path d="M351.01,439.66c-6.33,.18-12.28,3.59-15.63,8.95-.63,1-.25,2.52,.81,3.08,1.11,.58,2.41,.26,3.08-.81,.18-.29,.37-.58,.57-.87,.08-.11,.16-.22,.25-.34-.19,.25,0,0,.1-.12,.4-.48,.82-.94,1.27-1.37,.25-.24,.51-.47,.77-.7,.11-.09,.21-.18,.32-.26,.19-.15-.21,.14,.12-.09,.54-.38,1.08-.75,1.66-1.08,.27-.16,.55-.3,.82-.44,.12-.06,.25-.12,.37-.18-.01,0,.54-.25,.3-.14s.26-.1,.31-.12c.13-.05,.26-.1,.39-.14,.33-.12,.66-.22,.99-.32,.6-.17,1.21-.31,1.82-.42,0,0,.6-.08,.32-.05s.33-.03,.32-.03c.35-.03,.69-.05,1.04-.06,1.18-.03,2.31-1.01,2.25-2.25s-.99-2.29-2.25-2.25h0Z"/>
      <path d="M56.99,446.02c.98-.39,1.99-.73,3.01-.99,.44-.11,.88-.21,1.33-.3,.3-.06,.6-.11,.89-.16,.48-.08-.23,.02,.3-.04,.98-.11,1.96-.17,2.94-.16,.53,0,1.06,.03,1.59,.07,.23,.02,.45,.04,.68,.06,.15,.02,.3,.03,.45,.05-.22-.03-.2-.03,.08,.01,1.16,.17,2.48-.29,2.77-1.57,.24-1.07-.33-2.58-1.57-2.77-4.61-.69-9.32-.29-13.66,1.45-1.09,.44-1.97,1.52-1.57,2.77,.34,1.05,1.6,2.04,2.77,1.57h0Z"/>
      <path d="M102.77,444.38c1.09-.23,1.69-.31,3.01-.33,.53,0,1.06,0,1.59,.05,.3,.02,.61,.05,.91,.09-.41-.05,.33,.06,.41,.07,1.08,.19,2.15,.48,3.18,.87,.07,.03,.84,.34,.52,.2,.21,.09,.41,.19,.62,.29,.55,.27,1.07,.56,1.59,.88,1,.62,2.52,.25,3.08-.81s.26-2.42-.81-3.08c-4.56-2.8-10.08-3.68-15.3-2.57-1.15,.24-1.93,1.66-1.57,2.77,.39,1.22,1.53,1.83,2.77,1.57h0Z"/>
      <path d="M56.44,82.26l14.7-.59c1.17-.05,2.31-1,2.25-2.25-.05-1.18-.99-2.3-2.25-2.25l-14.7,.59c-1.17,.05-2.31,1-2.25,2.25,.05,1.18,.99,2.3,2.25,2.25h0Z"/>
      <path d="M103.37,77.08c.97,.61,1.92,1.24,2.86,1.89,.47,.33,.93,.66,1.4,1,.24,.18,.49,.36,.73,.54,.11,.08,.21,.16,.32,.24,.33,.25-.09-.08,.1,.08,1.83,1.44,3.59,2.95,5.28,4.55,.85,.81,2.35,.91,3.18,0s.91-2.32,0-3.18c-3.56-3.37-7.45-6.4-11.6-9.01-1-.63-2.52-.24-3.08,.81-.59,1.11-.26,2.41,.81,3.08h0Z"/>
      <g>
        <g>
          <circle class="cls-2" cx="673.08" cy="564.94" r="5.39"/>
          <path d="M677.23,564.94c-.02,1.7-1.09,3.33-2.68,3.89-1.74,.6-3.57,.12-4.74-1.32-1.04-1.28-1.17-3.24-.29-4.71s2.63-2.27,4.26-1.96c2.03,.39,3.42,2.09,3.45,4.1,.02,1.6,2.51,1.6,2.49,0-.04-2.8-1.76-5.25-4.37-6.23s-5.62-.15-7.33,1.96-2.09,5.24-.64,7.67,4.25,3.61,7,3.12c3.1-.56,5.3-3.42,5.34-6.51,.02-1.6-2.46-1.6-2.49,0Z"/>
        </g>
        <g>
          <circle class="cls-2" cx="673.08" cy="580.19" r="5.39"/>
          <path d="M677.23,580.19c-.02,1.7-1.09,3.33-2.68,3.89-1.74,.6-3.57,.12-4.74-1.32-1.04-1.28-1.17-3.24-.29-4.71s2.63-2.27,4.26-1.96c2.03,.39,3.42,2.09,3.45,4.1,.02,1.6,2.51,1.6,2.49,0-.04-2.8-1.76-5.25-4.37-6.23s-5.62-.15-7.33,1.96-2.09,5.24-.64,7.67,4.25,3.61,7,3.12c3.1-.56,5.3-3.42,5.34-6.51,.02-1.6-2.46-1.6-2.49,0Z"/>
        </g>
      </g>
      <g>
        <circle class="cls-13" cx="387.35" cy="563" r="5.39"/>
        <path d="M391.5,563c-.02,1.7-1.09,3.33-2.68,3.89-1.74,.6-3.57,.12-4.74-1.32-1.04-1.28-1.17-3.24-.29-4.71s2.63-2.27,4.26-1.96c2.03,.39,3.42,2.09,3.45,4.1,.02,1.6,2.51,1.6,2.49,0-.04-2.8-1.76-5.25-4.37-6.23s-5.62-.15-7.33,1.96-2.09,5.24-.64,7.67,4.25,3.61,7,3.12c3.1-.56,5.3-3.42,5.34-6.51,.02-1.6-2.46-1.6-2.49,0Z"/>
        <circle class="cls-13" cx="387.35" cy="578.25" r="5.39"/>
        <path d="M391.5,578.25c-.02,1.7-1.09,3.33-2.68,3.89-1.74,.6-3.57,.12-4.74-1.32-1.04-1.28-1.17-3.24-.29-4.71s2.63-2.27,4.26-1.96c2.03,.39,3.42,2.09,3.45,4.1,.02,1.6,2.51,1.6,2.49,0-.04-2.8-1.76-5.25-4.37-6.23s-5.62-.15-7.33,1.96-2.09,5.24-.64,7.67,4.25,3.61,7,3.12c3.1-.56,5.3-3.42,5.34-6.51,.02-1.6-2.46-1.6-2.49,0Z"/>
      </g>
      <g>
        <circle class="cls-13" cx="100.68" cy="563" r="5.39"/>
        <path d="M104.83,563c-.02,1.7-1.09,3.33-2.68,3.89-1.74,.6-3.57,.12-4.74-1.32-1.04-1.28-1.17-3.24-.29-4.71s2.63-2.27,4.26-1.96c2.03,.39,3.42,2.09,3.45,4.1,.02,1.6,2.51,1.6,2.49,0-.04-2.8-1.76-5.25-4.37-6.23s-5.62-.15-7.33,1.96-2.09,5.24-.64,7.67,4.25,3.61,7,3.12c3.1-.56,5.3-3.42,5.34-6.51,.02-1.6-2.46-1.6-2.49,0Z"/>
        <circle class="cls-13" cx="100.68" cy="578.25" r="5.39"/>
        <path d="M104.83,578.25c-.02,1.7-1.09,3.33-2.68,3.89-1.74,.6-3.57,.12-4.74-1.32-1.04-1.28-1.17-3.24-.29-4.71s2.63-2.27,4.26-1.96c2.03,.39,3.42,2.09,3.45,4.1,.02,1.6,2.51,1.6,2.49,0-.04-2.8-1.76-5.25-4.37-6.23s-5.62-.15-7.33,1.96-2.09,5.24-.64,7.67,4.25,3.61,7,3.12c3.1-.56,5.3-3.42,5.34-6.51,.02-1.6-2.46-1.6-2.49,0Z"/>
      </g>
      <g>
        <circle class="cls-13" cx="674.5" cy="211.78" r="5.39"/>
        <path d="M678.65,211.78c-.02,1.7-1.09,3.33-2.68,3.89-1.74,.6-3.57,.12-4.74-1.32-1.04-1.28-1.17-3.24-.29-4.71s2.63-2.27,4.26-1.96c2.03,.39,3.42,2.09,3.45,4.1,.02,1.6,2.51,1.6,2.49,0-.04-2.8-1.76-5.25-4.37-6.23s-5.62-.15-7.33,1.96-2.09,5.24-.64,7.67,4.25,3.61,7,3.12c3.1-.56,5.3-3.42,5.34-6.51,.02-1.6-2.46-1.6-2.49,0Z"/>
        <circle class="cls-13" cx="674.5" cy="227.03" r="5.39"/>
        <path d="M678.65,227.03c-.02,1.7-1.09,3.33-2.68,3.89-1.74,.6-3.57,.12-4.74-1.32-1.04-1.28-1.17-3.24-.29-4.71s2.63-2.27,4.26-1.96c2.03,.39,3.42,2.09,3.45,4.1,.02,1.6,2.51,1.6,2.49,0-.04-2.8-1.76-5.25-4.37-6.23s-5.62-.15-7.33,1.96-2.09,5.24-.64,7.67,4.25,3.61,7,3.12c3.1-.56,5.3-3.42,5.34-6.51,.02-1.6-2.46-1.6-2.49,0Z"/>
      </g>
      <g>
        <circle class="cls-13" cx="393.62" cy="208.7" r="5.39"/>
        <path d="M397.77,208.7c-.02,1.7-1.09,3.33-2.68,3.89-1.74,.6-3.57,.12-4.74-1.32-1.04-1.28-1.17-3.24-.29-4.71s2.63-2.27,4.26-1.96c2.03,.39,3.42,2.09,3.45,4.1,.02,1.6,2.51,1.6,2.49,0-.04-2.8-1.76-5.25-4.37-6.23s-5.62-.15-7.33,1.96-2.09,5.24-.64,7.67,4.25,3.61,7,3.12c3.1-.56,5.3-3.42,5.34-6.51,.02-1.6-2.46-1.6-2.49,0Z"/>
        <circle class="cls-13" cx="393.62" cy="223.95" r="5.39"/>
        <path d="M397.77,223.95c-.02,1.7-1.09,3.33-2.68,3.89-1.74,.6-3.57,.12-4.74-1.32-1.04-1.28-1.17-3.24-.29-4.71s2.63-2.27,4.26-1.96c2.03,.39,3.42,2.09,3.45,4.1,.02,1.6,2.51,1.6,2.49,0-.04-2.8-1.76-5.25-4.37-6.23s-5.62-.15-7.33,1.96-2.09,5.24-.64,7.67,4.25,3.61,7,3.12c3.1-.56,5.3-3.42,5.34-6.51,.02-1.6-2.46-1.6-2.49,0Z"/>
      </g>
      <path d="M655.51,411.91c.73-1.53,1.5-3.05,2.49-4.43,.06-.08,.11-.16,.17-.23,.23-.31-.2,.24,.05-.06,.12-.15,.24-.29,.37-.44,.27-.31,.57-.61,.88-.88,.07-.06,.14-.12,.21-.18,.13-.11,.14-.14,0,0,.16-.15,.37-.27,.55-.38,.35-.22,.72-.41,1.11-.58,.72-.31,.94-1.43,.54-2.05-.48-.75-1.28-.87-2.05-.54-3.46,1.48-5.36,5.05-6.91,8.27-.34,.71-.22,1.65,.54,2.05,.67,.35,1.69,.22,2.05-.54h0Z"/>
    </g>
  </g>
</svg>