<?xml version="1.0" encoding="UTF-8"?>
<svg id="Layer_2" data-name="Layer 2" xmlns="http://www.w3.org/2000/svg" viewBox="0 0 314.44 22.82">
  <defs>
    <style>
      .cls-1 {
        fill: #f4ca64;
      }
    </style>
  </defs>
  <g id="Layer_1-2" data-name="Layer 1">
    <g>
      <path class="cls-1" d="M210.46,17.74c-3.14-2.51-6.28-5.02-9.42-7.53-1.6-1.28-3.2-2.56-4.8-3.84-1.43-1.14-2.87-2.61-4.49-3.47-3.94-2.09-6.66,2.12-8.95,4.64-2.76,3.03-5.53,6.07-8.29,9.1l2.73-.35c-3.44-2.65-6.68-5.58-9.69-8.72-1.33-1.39-2.53-3.02-4.12-4.13-1.81-1.28-4-1.29-5.95-.34s-3.75,2.51-5.54,3.78c-1.95,1.38-3.89,2.75-5.84,4.13s-3.88,2.78-5.84,4.13c-.28,.19-.61,.49-.94,.58-.17,.05-.04,.07,.04,.07-.11-.01-.31-.17-.4-.24-.81-.65-1.51-1.47-2.25-2.19-3.86-3.8-7.72-7.6-11.57-11.4-.69-.68-1.88-.88-2.73-.35-3.65,2.29-7.15,4.8-10.49,7.52-1.6,1.31-3.16,2.67-4.67,4.08-.75,.7-1.49,1.41-2.21,2.14s-1.75,1.52-1.73,2.7l3.84-1.59c-3.14-2.51-6.28-5.02-9.42-7.53-1.6-1.28-3.2-2.56-4.8-3.84-1.43-1.14-2.87-2.61-4.49-3.47-3.94-2.09-6.66,2.12-8.95,4.64-2.76,3.03-5.53,6.07-8.29,9.1l2.73-.35c-3.44-2.65-6.68-5.58-9.69-8.72-1.33-1.39-2.53-3.02-4.12-4.13-1.81-1.28-4-1.29-5.95-.34s-3.75,2.51-5.54,3.78c-1.95,1.38-3.89,2.75-5.84,4.13s-3.88,2.78-5.84,4.13c-.28,.19-.61,.49-.94,.58-.17,.05-.04,.07,.04,.07-.11-.01-.31-.17-.4-.24-.81-.65-1.51-1.47-2.25-2.19-3.86-3.8-7.72-7.6-11.57-11.4-.69-.68-1.88-.88-2.73-.35C12.39,4.5,6.16,9.45,.65,15.13c-2.02,2.08,1.16,5.26,3.18,3.18,5.26-5.41,11.14-10.12,17.54-14.12l-2.73-.35c3.39,3.34,6.78,6.68,10.17,10.01,1.51,1.49,3.06,3.52,4.97,4.52,2.2,1.15,4.19,.23,6.05-1.08,3.89-2.75,7.79-5.51,11.68-8.26,.94-.66,1.88-1.33,2.82-1.99,.66-.47,1.63-1.42,2.5-1.46,.56-.02,1.01,.43,1.38,.8,.78,.77,1.48,1.63,2.23,2.43,3.45,3.68,7.22,7,11.22,10.08,.75,.58,2.12,.32,2.73-.35,2.38-2.61,4.75-5.22,7.13-7.83,1.16-1.27,2.32-2.55,3.48-3.82,.41-.45,.83-1.05,1.36-1.37-.14,.08-.15-.13,.16,.18,.26,.26,.65,.5,.94,.73,5.51,4.4,11.02,8.81,16.53,13.21,1.44,1.15,3.87,.52,3.84-1.59v-.02c-.22,.53-.44,1.06-.66,1.59,5.26-5.41,11.14-10.12,17.54-14.12l-2.73-.35c3.39,3.34,6.78,6.68,10.17,10.01,1.51,1.49,3.06,3.52,4.97,4.52,2.2,1.15,4.19,.23,6.05-1.08,3.89-2.75,7.79-5.51,11.68-8.26,.94-.66,1.88-1.33,2.82-1.99,.66-.47,1.63-1.42,2.5-1.46,.56-.02,1.01,.43,1.38,.8,.78,.77,1.48,1.63,2.23,2.43,3.45,3.68,7.22,7,11.22,10.08,.75,.58,2.12,.32,2.73-.35,2.38-2.61,4.75-5.22,7.13-7.83,1.16-1.27,2.32-2.55,3.48-3.82,.41-.45,.83-1.05,1.36-1.37-.14,.08-.15-.13,.16,.18,.26,.26,.65,.5,.94,.73,5.51,4.4,11.02,8.81,16.53,13.21,.95,.76,2.26,.93,3.18,0,.79-.79,.95-2.42,0-3.18h0Z"/>
      <path class="cls-1" d="M309.94,20.64v.02c1.28-.53,2.56-1.06,3.84-1.59-3.14-2.51-6.28-5.02-9.42-7.53-1.6-1.28-3.2-2.56-4.8-3.84-1.43-1.14-2.87-2.61-4.49-3.47-3.94-2.09-6.66,2.12-8.95,4.64-2.76,3.03-5.53,6.07-8.29,9.1l2.73-.35c-3.44-2.65-6.68-5.58-9.69-8.72-1.33-1.39-2.53-3.02-4.12-4.13-1.81-1.28-4-1.29-5.95-.34s-3.75,2.51-5.54,3.78c-1.95,1.38-3.89,2.75-5.84,4.13s-3.88,2.78-5.84,4.13c-.28,.19-.61,.49-.94,.58-.17,.05-.04,.07,.04,.07-.11-.01-.31-.17-.4-.24-.81-.65-1.51-1.47-2.25-2.19-3.86-3.8-7.72-7.6-11.57-11.4-.69-.68-1.88-.88-2.73-.35-6.7,4.2-12.93,9.15-18.45,14.83-2.02,2.08,1.16,5.26,3.18,3.18,5.26-5.41,11.14-10.12,17.54-14.12l-2.73-.35c3.39,3.34,6.78,6.68,10.17,10.01,1.51,1.49,3.06,3.52,4.97,4.52,2.2,1.15,4.19,.23,6.05-1.08,3.89-2.75,7.79-5.51,11.68-8.26,.94-.66,1.88-1.33,2.82-1.99,.66-.47,1.63-1.42,2.5-1.46,.56-.02,1.01,.43,1.38,.8,.78,.77,1.48,1.63,2.23,2.43,3.45,3.68,7.22,7,11.22,10.08,.75,.58,2.12,.32,2.73-.35,2.38-2.61,4.75-5.22,7.13-7.83,1.16-1.27,2.32-2.55,3.48-3.82,.41-.45,.83-1.05,1.36-1.37-.14,.08-.15-.13,.16,.18,.26,.26,.65,.5,.94,.73,5.51,4.4,11.02,8.81,16.53,13.21,1.44,1.15,3.87,.52,3.84-1.59v-.02c-.04-2.89-4.54-2.9-4.5,0h0Z"/>
    </g>
  </g>
</svg>